<?xml version="1.0" encoding="UTF-8" standalone="no"?>
<svg
        xmlns:dc="http://purl.org/dc/elements/1.1/"
        xmlns:cc="http://creativecommons.org/ns#"
        xmlns:rdf="http://www.w3.org/1999/02/22-rdf-syntax-ns#"
        xmlns="http://www.w3.org/2000/svg"
        xmlns:sodipodi="http://sodipodi.sourceforge.net/DTD/sodipodi-0.dtd"
        xmlns:inkscape="http://www.inkscape.org/namespaces/inkscape"
        version="1.1"
        id="svg2"
        xml:space="preserve"
        width="283.46667"
        height="415.74667"
        viewBox="0 0 283.46667 415.74667"
        sodipodi:docname="eu-tyre-label-template-2020.svg"
        inkscape:version="1.0 (4035a4f, 2020-05-01)"><metadata
     id="metadata8"><rdf:RDF><cc:Work
         rdf:about=""><dc:format>image/svg+xml</dc:format><dc:type
           rdf:resource="http://purl.org/dc/dcmitype/StillImage" /></cc:Work></rdf:RDF></metadata><defs
     id="defs6"><rect
       x="94.603582"
       y="265.99303"
       width="62.068418"
       height="44.995029"
       id="rect1151" /><clipPath
       clipPathUnits="userSpaceOnUse"
       id="clipPath274"><path
         d="m 1482.11,114.242 94.66,168.059 21.97,-34.422 12.47,32.293 25.51,-86.742 18.71,72.57 15.31,-24.949 21.54,68.179 110.37,-194.988 h -320.54 z"
         id="path272" /></clipPath><clipPath
       clipPathUnits="userSpaceOnUse"
       id="clipPath280"><path
         d="m 1220.84,594.961 326.78,15.41 30.25,-641.5702 -326.77,-15.4102 -30.26,641.5704 z"
         id="path278" /></clipPath><clipPath
       clipPathUnits="userSpaceOnUse"
       id="clipPath290"><path
         d="m 1482.11,114.242 94.66,168.059 21.97,-34.422 12.47,32.293 25.51,-86.742 18.71,72.57 15.31,-24.949 21.54,68.179 110.37,-194.988 h -320.54 z"
         id="path288" /></clipPath><clipPath
       clipPathUnits="userSpaceOnUse"
       id="clipPath296"><path
         d="m 1235.79,595.672 327.89,15.457 30.25,-641.5704 -327.88,-15.457 -30.26,641.5704 z"
         id="path294" /></clipPath><clipPath
       clipPathUnits="userSpaceOnUse"
       id="clipPath306"><path
         d="m 1482.11,114.242 94.66,168.059 21.97,-34.422 12.47,32.293 25.51,-86.742 18.71,72.57 15.31,-24.949 21.54,68.179 110.37,-194.988 h -320.54 z"
         id="path304" /></clipPath><clipPath
       clipPathUnits="userSpaceOnUse"
       id="clipPath312"><path
         d="m 1251.85,596.43 327.89,15.461 30.25,-641.5707 -327.88,-15.4609 -30.26,641.5706 z"
         id="path310" /></clipPath><clipPath
       clipPathUnits="userSpaceOnUse"
       id="clipPath322"><path
         d="m 1482.11,114.242 94.66,168.059 21.97,-34.422 12.47,32.293 25.51,-86.742 18.71,72.57 15.31,-24.949 21.54,68.179 110.37,-194.988 h -320.54 z"
         id="path320" /></clipPath><clipPath
       clipPathUnits="userSpaceOnUse"
       id="clipPath328"><path
         d="m 1267.91,597.18 327.89,15.468 30.25,-641.566 -327.88,-15.4726 -30.26,641.5706 z"
         id="path326" /></clipPath><clipPath
       clipPathUnits="userSpaceOnUse"
       id="clipPath338"><path
         d="m 1482.11,114.242 94.66,168.059 21.97,-34.422 12.47,32.293 25.51,-86.742 18.71,72.57 15.31,-24.949 21.54,68.179 110.37,-194.988 h -320.54 z"
         id="path336" /></clipPath><clipPath
       clipPathUnits="userSpaceOnUse"
       id="clipPath344"><path
         d="m 1283.97,597.941 327.89,15.457 30.26,-641.566 -327.89,-15.4609 -30.26,641.5699 z"
         id="path342" /></clipPath><clipPath
       clipPathUnits="userSpaceOnUse"
       id="clipPath354"><path
         d="m 1482.11,114.242 94.66,168.059 21.97,-34.422 12.47,32.293 25.51,-86.742 18.71,72.57 15.31,-24.949 21.54,68.179 110.37,-194.988 h -320.54 z"
         id="path352" /></clipPath><clipPath
       clipPathUnits="userSpaceOnUse"
       id="clipPath360"><path
         d="m 1300.04,598.699 327.88,15.461 30.26,-641.5702 -327.89,-15.4609 -30.25,641.5701 z"
         id="path358" /></clipPath><clipPath
       clipPathUnits="userSpaceOnUse"
       id="clipPath370"><path
         d="m 1482.11,114.242 94.66,168.059 21.97,-34.422 12.47,32.293 25.51,-86.742 18.71,72.57 15.31,-24.949 21.54,68.179 110.37,-194.988 h -320.54 z"
         id="path368" /></clipPath><clipPath
       clipPathUnits="userSpaceOnUse"
       id="clipPath376"><path
         d="m 1316.1,599.461 327.88,15.461 30.26,-641.5704 -327.89,-15.461 -30.25,641.5704 z"
         id="path374" /></clipPath><clipPath
       clipPathUnits="userSpaceOnUse"
       id="clipPath386"><path
         d="m 1482.11,114.242 94.66,168.059 21.97,-34.422 12.47,32.293 25.51,-86.742 18.71,72.57 15.31,-24.949 21.54,68.179 110.37,-194.988 h -320.54 z"
         id="path384" /></clipPath><clipPath
       clipPathUnits="userSpaceOnUse"
       id="clipPath392"><path
         d="m 1332.16,600.211 327.88,15.469 30.26,-641.5706 -327.89,-15.4688 -30.25,641.5704 z"
         id="path390" /></clipPath><clipPath
       clipPathUnits="userSpaceOnUse"
       id="clipPath402"><path
         d="m 1482.11,114.242 94.66,168.059 21.97,-34.422 12.47,32.293 25.51,-86.742 18.71,72.57 15.31,-24.949 21.54,68.179 110.37,-194.988 h -320.54 z"
         id="path400" /></clipPath><clipPath
       clipPathUnits="userSpaceOnUse"
       id="clipPath408"><path
         d="m 1348.22,600.969 327.88,15.461 30.26,-641.5706 -327.89,-15.461 -30.25,641.5706 z"
         id="path406" /></clipPath><clipPath
       clipPathUnits="userSpaceOnUse"
       id="clipPath418"><path
         d="m 1482.11,114.242 94.66,168.059 21.97,-34.422 12.47,32.293 25.51,-86.742 18.71,72.57 15.31,-24.949 21.54,68.179 110.37,-194.988 h -320.54 z"
         id="path416" /></clipPath><clipPath
       clipPathUnits="userSpaceOnUse"
       id="clipPath424"><path
         d="m 1364.28,601.73 327.89,15.461 30.25,-641.5699 -327.88,-15.4609 -30.26,641.5698 z"
         id="path422" /></clipPath><clipPath
       clipPathUnits="userSpaceOnUse"
       id="clipPath434"><path
         d="m 1482.11,114.242 94.66,168.059 21.97,-34.422 12.47,32.293 25.51,-86.742 18.71,72.57 15.31,-24.949 21.54,68.179 110.37,-194.988 h -320.54 z"
         id="path432" /></clipPath><clipPath
       clipPathUnits="userSpaceOnUse"
       id="clipPath440"><path
         d="m 1380.34,602.492 327.89,15.457 30.25,-641.5701 -327.88,-15.457 -30.26,641.5701 z"
         id="path438" /></clipPath><clipPath
       clipPathUnits="userSpaceOnUse"
       id="clipPath450"><path
         d="m 1482.11,114.242 94.66,168.059 21.97,-34.422 12.47,32.293 25.51,-86.742 18.71,72.57 15.31,-24.949 21.54,68.179 110.37,-194.988 h -320.54 z"
         id="path448" /></clipPath><clipPath
       clipPathUnits="userSpaceOnUse"
       id="clipPath456"><path
         d="m 1396.4,603.238 327.89,15.473 30.25,-641.5704 -327.88,-15.4687 -30.26,641.5661 z"
         id="path454" /></clipPath><clipPath
       clipPathUnits="userSpaceOnUse"
       id="clipPath466"><path
         d="m 1482.11,114.242 94.66,168.059 21.97,-34.422 12.47,32.293 25.51,-86.742 18.71,72.57 15.31,-24.949 21.54,68.179 110.37,-194.988 h -320.54 z"
         id="path464" /></clipPath><clipPath
       clipPathUnits="userSpaceOnUse"
       id="clipPath472"><path
         d="M 1412.46,604 1740.35,619.461 1770.6,-22.1094 1442.72,-37.5703 1412.46,604 Z"
         id="path470" /></clipPath><clipPath
       clipPathUnits="userSpaceOnUse"
       id="clipPath482"><path
         d="m 1482.11,114.242 94.66,168.059 21.97,-34.422 12.47,32.293 25.51,-86.742 18.71,72.57 15.31,-24.949 21.54,68.179 110.37,-194.988 h -320.54 z"
         id="path480" /></clipPath><clipPath
       clipPathUnits="userSpaceOnUse"
       id="clipPath488"><path
         d="m 1428.52,604.762 327.89,15.457 30.26,-641.5706 -327.89,-15.457 -30.26,641.5706 z"
         id="path486" /></clipPath><clipPath
       clipPathUnits="userSpaceOnUse"
       id="clipPath498"><path
         d="m 1482.11,114.242 94.66,168.059 21.97,-34.422 12.47,32.293 25.51,-86.742 18.71,72.57 15.31,-24.949 21.54,68.179 110.37,-194.988 h -320.54 z"
         id="path496" /></clipPath><clipPath
       clipPathUnits="userSpaceOnUse"
       id="clipPath504"><path
         d="m 1444.59,605.512 327.88,15.468 30.26,-641.5698 -327.89,-15.4688 -30.25,641.5706 z"
         id="path502" /></clipPath><clipPath
       clipPathUnits="userSpaceOnUse"
       id="clipPath514"><path
         d="m 1482.11,114.242 94.66,168.059 21.97,-34.422 12.47,32.293 25.51,-86.742 18.71,72.57 15.31,-24.949 21.54,68.179 110.37,-194.988 h -320.54 z"
         id="path512" /></clipPath><clipPath
       clipPathUnits="userSpaceOnUse"
       id="clipPath520"><path
         d="m 1460.65,606.27 327.88,15.46 30.26,-641.5581 -327.89,-15.4727 -30.25,641.5708 z"
         id="path518" /></clipPath><clipPath
       clipPathUnits="userSpaceOnUse"
       id="clipPath530"><path
         d="m 1482.11,114.242 94.66,168.059 21.97,-34.422 12.47,32.293 25.51,-86.742 18.71,72.57 15.31,-24.949 21.54,68.179 110.37,-194.988 h -320.54 z"
         id="path528" /></clipPath><clipPath
       clipPathUnits="userSpaceOnUse"
       id="clipPath536"><path
         d="m 1476.71,607.031 327.88,15.461 30.26,-641.5701 -327.89,-15.461 -30.25,641.5701 z"
         id="path534" /></clipPath><clipPath
       clipPathUnits="userSpaceOnUse"
       id="clipPath546"><path
         d="m 1482.11,114.242 94.66,168.059 21.97,-34.422 12.47,32.293 25.51,-86.742 18.71,72.57 15.31,-24.949 21.54,68.179 110.37,-194.988 h -320.54 z"
         id="path544" /></clipPath><clipPath
       clipPathUnits="userSpaceOnUse"
       id="clipPath552"><path
         d="m 1492.77,607.789 326.95,15.422 30.25,-641.5704 -326.95,-15.4219 -30.25,641.5703 z"
         id="path550" /></clipPath></defs><sodipodi:namedview
     inkscape:snap-global="false"
     inkscape:guide-bbox="true"
     showguides="true"
     pagecolor="#ffffff"
     bordercolor="#666666"
     borderopacity="1"
     objecttolerance="10"
     gridtolerance="10"
     guidetolerance="10"
     inkscape:pageopacity="0"
     inkscape:pageshadow="2"
     inkscape:window-width="1920"
     inkscape:window-height="1027"
     id="namedview4"
     inkscape:document-rotation="0"
     showgrid="true"
     inkscape:zoom="10.416762"
     inkscape:cx="156.92357"
     inkscape:cy="180.14642"
     inkscape:window-x="0"
     inkscape:window-y="25"
     inkscape:window-maximized="1"
     inkscape:current-layer="g10"><inkscape:grid
       type="xygrid"
       id="grid1161" /><sodipodi:guide
       id="guide2250"
       orientation="1,0"
       position="11.343029,362.02358" /><sodipodi:guide
       id="guide2252"
       orientation="0,-1"
       position="193.89841,314.15985" /><sodipodi:guide
       id="guide2254"
       orientation="0,-1"
       position="202.96916,340.41739" /><sodipodi:guide
       id="guide1597"
       orientation="1,0"
       position="272.13362,337.8" /><sodipodi:guide
       position="13.561559,404.43434"
       orientation="0,-1"
       id="guide1509" /><sodipodi:guide
       position="17.464642,362.88967"
       orientation="0,-1"
       id="guide1511" /></sodipodi:namedview><g
     id="g10"
     inkscape:groupmode="layer"
     inkscape:label="ink_ext_XXXXXX"
     transform="matrix(1.3333333,0,0,-1.3333333,0,415.74667)">
    <rect
   y="0"
   x="0"
   id="rect916"
   fill="#ffffff"
   height="100%"
   width="100%" />
    <path
   id="path14"
   style="fill:none;stroke:#231f20;stroke-width:0.5;stroke-linecap:butt;stroke-linejoin:miter;stroke-miterlimit:4;stroke-dasharray:none;stroke-opacity:1"
   d="M 8.50391,67.0961 H 203.919 M 8.50391,232.896 H 204.094 M 8.50391,252.593 H 204.094" /><text
   y="-256.83945"
   x="7.534369"
   transform="scale(1,-1)"
   style="font-style:normal;font-variant:normal;font-weight:bold;font-stretch:normal;font-size:8px;font-family:Verdana;-inkscape-font-specification:'Verdana, Bold';font-variant-ligatures:normal;font-variant-caps:normal;font-variant-numeric:normal;font-variant-east-asian:normal;writing-mode:lr-tb;fill:#231f20;fill-opacity:1;fill-rule:nonzero;stroke:none"
   id="supplier">[SUPPLIER]</text><text
   transform="scale(1,-1)"
   style="font-style:normal;font-variant:normal;font-weight:normal;font-stretch:normal;font-size:8px;font-family:Verdana;-inkscape-font-specification:'Verdana, Normal';font-variant-ligatures:normal;font-variant-caps:normal;font-variant-numeric:normal;font-variant-east-asian:normal;writing-mode:lr-tb;fill:#231f20;fill-opacity:1;fill-rule:nonzero;stroke:none"
   text-anchor="end"
   id="identificationNumber"
   x="205.04802"
   y="-256.84842"><tspan
     id="tspan2246"
     style="text-align:end;text-anchor:end"
     text-anchor="end">[IDENTIFICATION_NUMBER]</tspan></text><text
   y="-200.554"
   x="-31.191"
   transform="matrix(0,-1,-1,0,0,0)"
   style="font-variant:normal;font-weight:normal;font-size:4.625px;font-family:Verdana;-inkscape-font-specification:Verdana;writing-mode:lr-tb;fill:#231f20;fill-opacity:1;fill-rule:nonzero;stroke:none"
   id="text30"><tspan
     x="-31.191 -28.250572 -25.310141 -22.369711 -19.429279 -17.329529 -14.389099 -11.448668"
     y="-200.554"
     sodipodi:role="line"
     id="tspan28">2020/740</tspan></text><text
   xml:space="preserve"
   id="text1149"
   style="font-style:normal;font-weight:normal;font-size:30px;line-height:1.25;font-family:sans-serif;white-space:pre;shape-inside:url(#rect1151);fill:#000000;fill-opacity:1;stroke:none;" /><text
   xml:space="preserve"
   style="font-style:normal;font-variant:normal;font-weight:normal;font-stretch:normal;font-size:8px;line-height:1.25;font-family:Verdana;-inkscape-font-specification:'Verdana, Normal';font-variant-ligatures:normal;font-variant-caps:normal;font-variant-numeric:normal;font-variant-east-asian:normal;text-anchor:end;fill:#000000;fill-opacity:1;stroke:none;stroke-width:0.75"
   x="205.05325"
   y="-237.13791"
   text-anchor="end"
   id="tyreClassification"
   transform="scale(1,-1)"><tspan
     id="tspan2248"
     style="font-style:normal;font-variant:normal;font-weight:normal;font-stretch:normal;font-size:8px;font-family:Verdana;-inkscape-font-specification:'Verdana, Normal';font-variant-ligatures:normal;font-variant-caps:normal;font-variant-numeric:normal;font-variant-east-asian:normal;text-align:end;text-anchor:end"
     text-anchor="end">[TYRE_CLASSIFICATION]</tspan></text><g
   id="fuelEfficiencyClassA"
   style="display:none"><path
     d="m 80.26716,188.485 -8.739799,-13.446 8.739799,-13.487 h 17.808201 v 26.933 H 80.26716 v 0"
     style="fill:#040606;fill-opacity:1;fill-rule:nonzero;stroke:none;stroke-width:0.0999997"
     id="path140-9" /><text
     id="text146-6"
     fill="#ffffff"
     style="font-style:normal;font-variant:normal;font-weight:bold;font-stretch:normal;font-size:19.9063px;font-family:Calibri;-inkscape-font-specification:'Calibri, Bold';font-variant-ligatures:normal;font-variant-caps:normal;font-variant-numeric:normal;font-variant-east-asian:normal;writing-mode:lr-tb;fill:#ffffff;fill-opacity:1;fill-rule:nonzero;stroke:none;stroke-width:0.994052"
     transform="scale(0.99405229,-1.0059833)"
     x="81.765175"
     y="-167.55357"><tspan
       y="-167.55357"
       x="81.765175"
       id="tspan1534"
       sodipodi:role="line"
       style="font-style:normal;font-variant:normal;font-weight:bold;font-stretch:normal;font-size:19.9063px;font-family:Calibri;-inkscape-font-specification:'Calibri, Bold';font-variant-ligatures:normal;font-variant-caps:normal;font-variant-numeric:normal;font-variant-east-asian:normal;stroke-width:0.994052">A</tspan></text></g><g
   id="fuelEfficiencyClassB"
   style="display:none"><path
     id="path140-2"
     style="fill:#040606;fill-opacity:1;fill-rule:nonzero;stroke:none;stroke-width:0.0999997"
     d="m 80.24883,165.74879 -8.7398,-13.446 8.7398,-13.48701 h 17.8082 v 26.93301 h -17.8082 v 0" /><text
     transform="scale(0.9940523,-1.0059833)"
     style="font-style:normal;font-variant:normal;font-weight:bold;font-stretch:normal;font-size:19.9063px;font-family:Calibri;-inkscape-font-specification:'Calibri, Bold';font-variant-ligatures:normal;font-variant-caps:normal;font-variant-numeric:normal;font-variant-east-asian:normal;writing-mode:lr-tb;fill:#ffffff;fill-opacity:1;fill-rule:nonzero;stroke:none;stroke-width:0.994052"
     fill="#ffffff"
     id="text146-5"
     x="81.746735"
     y="-144.95258"><tspan
       sodipodi:role="line"
       id="tspan1559"
       x="81.746735"
       y="-144.95258"
       style="font-style:normal;font-variant:normal;font-weight:bold;font-stretch:normal;font-size:19.9063px;font-family:Calibri;-inkscape-font-specification:'Calibri, Bold';font-variant-ligatures:normal;font-variant-caps:normal;font-variant-numeric:normal;font-variant-east-asian:normal;stroke-width:0.994052">B</tspan></text></g><path
   id="path34"
   style="fill:#b2e6fa;fill-opacity:1;fill-rule:nonzero;stroke:none;stroke-width:0.1"
   d="M 157.662,93.468 H 112.236 V 75.193 h 45.426 l 8.256,9.1379 -8.256,9.1371 v 0" /><path
   id="path36"
   style="fill:none;stroke:#231f20;stroke-width:0.15;stroke-linecap:butt;stroke-linejoin:miter;stroke-miterlimit:10;stroke-dasharray:none;stroke-opacity:1"
   d="M 157.662,93.468 H 112.236 V 75.193 h 45.426 l 8.256,9.1379 z" /><path
   id="path38"
   style="fill:#81c3ed;fill-opacity:1;fill-rule:nonzero;stroke:none;stroke-width:0.1"
   d="M 152.032,116.117 H 112.236 V 97.8422 h 39.796 l 8.217,9.1368 -8.217,9.138 v 0" /><path
   id="path40"
   style="fill:none;stroke:#231f20;stroke-width:0.15;stroke-linecap:butt;stroke-linejoin:miter;stroke-miterlimit:10;stroke-dasharray:none;stroke-opacity:1"
   d="M 152.032,116.117 H 112.236 V 97.8422 h 39.796 l 8.217,9.1368 z" /><path
   id="path42"
   style="fill:#5ea8e0;fill-opacity:1;fill-rule:nonzero;stroke:none;stroke-width:0.1"
   d="m 146.005,138.811 h -33.769 v -18.276 h 33.769 l 8.573,9.138 -8.573,9.138 v 0" /><path
   id="path44"
   style="fill:none;stroke:#231f20;stroke-width:0.15;stroke-linecap:butt;stroke-linejoin:miter;stroke-miterlimit:10;stroke-dasharray:none;stroke-opacity:1"
   d="m 146.005,138.811 h -33.769 v -18.276 h 33.769 l 8.573,9.138 z" /><path
   id="path46"
   style="fill:#297ecb;fill-opacity:1;fill-rule:nonzero;stroke:none;stroke-width:0.1"
   d="m 140.389,161.5 h -28.153 v -18.275 h 28.153 l 8.52,9.137 -8.52,9.138 v 0" /><path
   id="path48"
   style="fill:none;stroke:#231f20;stroke-width:0.15;stroke-linecap:butt;stroke-linejoin:miter;stroke-miterlimit:10;stroke-dasharray:none;stroke-opacity:1"
   d="m 140.389,161.5 h -28.153 v -18.275 h 28.153 l 8.52,9.137 z" /><path
   id="path50"
   style="fill:#1c63b7;fill-opacity:1;fill-rule:nonzero;stroke:none;stroke-width:0.1"
   d="m 134.523,184.177 h -22.287 v -18.275 h 22.287 l 8.716,9.137 -8.716,9.138 v 0" /><path
   id="path52"
   style="fill:none;stroke:#231f20;stroke-width:0.15;stroke-linecap:butt;stroke-linejoin:miter;stroke-miterlimit:10;stroke-dasharray:none;stroke-opacity:1"
   d="m 134.523,184.177 h -22.287 v -18.275 h 22.287 l 8.716,9.137 z" /><text
   y="-164.34052"
   x="121.1267"
   transform="scale(0.96611234,-1.0350763)"
   style="font-style:normal;font-variant:normal;font-weight:bold;font-stretch:normal;font-size:15.0238px;font-family:Calibri;-inkscape-font-specification:'Calibri, Bold';font-variant-ligatures:normal;font-variant-caps:normal;font-variant-numeric:normal;font-variant-east-asian:normal;writing-mode:lr-tb;fill:#ffffff;fill-opacity:1;fill-rule:nonzero;stroke:#231f20;stroke-width:0.108861;stroke-linecap:butt;stroke-linejoin:miter;stroke-miterlimit:10;stroke-dasharray:none;stroke-opacity:1"
   id="text58"><tspan
     style="font-style:normal;font-variant:normal;font-weight:bold;font-stretch:normal;font-size:15.0238px;font-family:Calibri;-inkscape-font-specification:'Calibri, Bold';font-variant-ligatures:normal;font-variant-caps:normal;font-variant-numeric:normal;font-variant-east-asian:normal;stroke-width:0.108861"
     x="121.1267"
     y="-164.34052"
     id="tspan56">A</tspan></text><text
   y="-141.71332"
   x="122.17268"
   transform="scale(0.96155707,-1.0399799)"
   style="font-style:normal;font-variant:normal;font-weight:bold;font-stretch:normal;font-size:15.095px;font-family:Calibri;-inkscape-font-specification:'Calibri, Bold';font-variant-ligatures:normal;font-variant-caps:normal;font-variant-numeric:normal;font-variant-east-asian:normal;writing-mode:lr-tb;fill:#ffffff;fill-opacity:1;fill-rule:nonzero;stroke:#231f20;stroke-width:0.10886;stroke-linecap:butt;stroke-linejoin:miter;stroke-miterlimit:10;stroke-dasharray:none;stroke-opacity:1"
   id="text64"><tspan
     style="font-style:normal;font-variant:normal;font-weight:bold;font-stretch:normal;font-size:15.095px;font-family:Calibri;-inkscape-font-specification:'Calibri, Bold';font-variant-ligatures:normal;font-variant-caps:normal;font-variant-numeric:normal;font-variant-east-asian:normal;stroke-width:0.10886"
     x="122.17268"
     y="-141.71332"
     id="tspan62">B</tspan></text><text
   y="-121.77792"
   x="119.83524"
   transform="scale(0.97665758,-1.0239003)"
   style="font-style:normal;font-variant:normal;font-weight:bold;font-stretch:normal;font-size:14.8616px;font-family:Calibri;-inkscape-font-specification:'Calibri, Bold';font-variant-ligatures:normal;font-variant-caps:normal;font-variant-numeric:normal;font-variant-east-asian:normal;writing-mode:lr-tb;fill:#ffffff;fill-opacity:1;fill-rule:nonzero;stroke:#231f20;stroke-width:0.10886;stroke-linecap:butt;stroke-linejoin:miter;stroke-miterlimit:10;stroke-dasharray:none;stroke-opacity:1"
   id="text70"><tspan
     style="font-style:normal;font-variant:normal;font-weight:bold;font-stretch:normal;font-size:14.8616px;font-family:Calibri;-inkscape-font-specification:'Calibri, Bold';font-variant-ligatures:normal;font-variant-caps:normal;font-variant-numeric:normal;font-variant-east-asian:normal;stroke-width:0.10886"
     x="119.83524"
     y="-121.77792"
     id="tspan68">C</tspan></text><text
   y="-97.767273"
   x="121.37605"
   transform="scale(0.96155707,-1.0399799)"
   style="font-style:normal;font-variant:normal;font-weight:bold;font-stretch:normal;font-size:15.095px;font-family:Calibri;-inkscape-font-specification:'Calibri, Bold';font-variant-ligatures:normal;font-variant-caps:normal;font-variant-numeric:normal;font-variant-east-asian:normal;writing-mode:lr-tb;fill:#ffffff;fill-opacity:1;fill-rule:nonzero;stroke:#231f20;stroke-width:0.10886;stroke-linecap:butt;stroke-linejoin:miter;stroke-miterlimit:10;stroke-dasharray:none;stroke-opacity:1"
   id="text76"><tspan
     style="font-style:normal;font-variant:normal;font-weight:bold;font-stretch:normal;font-size:15.095px;font-family:Calibri;-inkscape-font-specification:'Calibri, Bold';font-variant-ligatures:normal;font-variant-caps:normal;font-variant-numeric:normal;font-variant-east-asian:normal;stroke-width:0.10886"
     x="121.37605"
     y="-97.767273"
     id="tspan74">D</tspan></text><text
   y="-76.467308"
   x="122.20492"
   transform="scale(0.96155705,-1.0399799)"
   style="font-style:normal;font-variant:normal;font-weight:bold;font-stretch:normal;font-size:15.095px;font-family:Calibri;-inkscape-font-specification:'Calibri, Bold';font-variant-ligatures:normal;font-variant-caps:normal;font-variant-numeric:normal;font-variant-east-asian:normal;writing-mode:lr-tb;fill:#ffffff;fill-opacity:1;fill-rule:nonzero;stroke:#231f20;stroke-width:0.10886;stroke-linecap:butt;stroke-linejoin:miter;stroke-miterlimit:10;stroke-dasharray:none;stroke-opacity:1"
   id="text82"><tspan
     style="font-style:normal;font-variant:normal;font-weight:bold;font-stretch:normal;font-size:15.095px;font-family:Calibri;-inkscape-font-specification:'Calibri, Bold';font-variant-ligatures:normal;font-variant-caps:normal;font-variant-numeric:normal;font-variant-east-asian:normal;stroke-width:0.10886"
     x="122.20492"
     y="-76.467308"
     id="tspan80">E</tspan></text><path
   id="path84"
   style="fill:#ed1c24;fill-opacity:1;fill-rule:nonzero;stroke:none;stroke-width:0.1"
   d="M 54.0043,93.468 H 8.57891 V 75.193 H 54.0043 l 8.257,9.1379 -8.257,9.1371 v 0" /><path
   id="path86"
   style="fill:none;stroke:#231f20;stroke-width:0.15;stroke-linecap:butt;stroke-linejoin:miter;stroke-miterlimit:10;stroke-dasharray:none;stroke-opacity:1"
   d="M 54.0043,93.468 H 8.57891 V 75.193 H 54.0043 l 8.257,9.1379 z" /><path
   id="path88"
   style="fill:#fab20b;fill-opacity:1;fill-rule:nonzero;stroke:none;stroke-width:0.1"
   d="M 48.375,116.117 H 8.57891 V 97.8422 H 48.375 l 8.2168,9.1368 -8.2168,9.138 v 0" /><path
   id="path90"
   style="fill:none;stroke:#231f20;stroke-width:0.15;stroke-linecap:butt;stroke-linejoin:miter;stroke-miterlimit:10;stroke-dasharray:none;stroke-opacity:1"
   d="M 48.375,116.117 H 8.57891 V 97.8422 H 48.375 l 8.2168,9.1368 z" /><path
   id="path92"
   style="fill:#fff200;fill-opacity:1;fill-rule:nonzero;stroke:none;stroke-width:0.1"
   d="M 42.3477,138.819 H 8.57891 V 120.544 H 42.3477 l 8.5734,9.137 -8.5734,9.138 v 0" /><path
   id="path94"
   style="fill:none;stroke:#231f20;stroke-width:0.15;stroke-linecap:butt;stroke-linejoin:miter;stroke-miterlimit:10;stroke-dasharray:none;stroke-opacity:1"
   d="M 42.3477,138.819 H 8.57891 V 120.544 H 42.3477 l 8.5734,9.137 z" /><path
   id="path96"
   style="fill:#8cd024;fill-opacity:1;fill-rule:nonzero;stroke:none;stroke-width:0.1"
   d="M 36.7313,161.443 H 8.57891 V 143.168 H 36.7313 l 8.5207,9.138 -8.5207,9.137 v 0" /><path
   id="path98"
   style="fill:none;stroke:#231f20;stroke-width:0.15;stroke-linecap:butt;stroke-linejoin:miter;stroke-miterlimit:10;stroke-dasharray:none;stroke-opacity:1"
   d="M 36.7313,161.443 H 8.57891 V 143.168 H 36.7313 l 8.5207,9.138 z" /><path
   id="path100"
   style="fill:#00a650;fill-opacity:1;fill-rule:nonzero;stroke:none;stroke-width:0.1"
   d="M 30.866,184.177 H 8.57891 V 165.902 H 30.866 l 8.7156,9.137 -8.7156,9.138 v 0" /><path
   id="path102"
   style="fill:none;stroke:#231f20;stroke-width:0.15;stroke-linecap:butt;stroke-linejoin:miter;stroke-miterlimit:10;stroke-dasharray:none;stroke-opacity:1"
   d="M 30.866,184.177 H 8.57891 V 165.902 H 30.866 l 8.7156,9.137 z" /><text
   y="-164.34053"
   x="13.568401"
   transform="scale(0.96611231,-1.0350763)"
   style="font-style:normal;font-variant:normal;font-weight:bold;font-stretch:normal;font-size:15.0238px;font-family:Calibri;-inkscape-font-specification:'Calibri, Bold';font-variant-ligatures:normal;font-variant-caps:normal;font-variant-numeric:normal;font-variant-east-asian:normal;writing-mode:lr-tb;fill:#ffffff;fill-opacity:1;fill-rule:nonzero;stroke:#231f20;stroke-width:0.108861;stroke-linecap:butt;stroke-linejoin:miter;stroke-miterlimit:10;stroke-dasharray:none;stroke-opacity:1"
   id="text108"><tspan
     style="font-style:normal;font-variant:normal;font-weight:bold;font-stretch:normal;font-size:15.0238px;font-family:Calibri;-inkscape-font-specification:'Calibri, Bold';font-variant-ligatures:normal;font-variant-caps:normal;font-variant-numeric:normal;font-variant-east-asian:normal;stroke-width:0.108861"
     x="13.568401"
     y="-164.34053"
     id="tspan106">A</tspan></text><text
   y="-141.56146"
   x="13.689567"
   transform="scale(0.96155706,-1.0399799)"
   style="font-style:normal;font-variant:normal;font-weight:bold;font-stretch:normal;font-size:15.095px;font-family:Calibri;-inkscape-font-specification:'Calibri, Bold';font-variant-ligatures:normal;font-variant-caps:normal;font-variant-numeric:normal;font-variant-east-asian:normal;writing-mode:lr-tb;fill:#ffffff;fill-opacity:1;fill-rule:nonzero;stroke:#231f20;stroke-width:0.10886;stroke-linecap:butt;stroke-linejoin:miter;stroke-miterlimit:10;stroke-dasharray:none;stroke-opacity:1"
   id="text114"><tspan
     style="font-style:normal;font-variant:normal;font-weight:bold;font-stretch:normal;font-size:15.095px;font-family:Calibri;-inkscape-font-specification:'Calibri, Bold';font-variant-ligatures:normal;font-variant-caps:normal;font-variant-numeric:normal;font-variant-east-asian:normal;stroke-width:0.10886"
     x="13.689567"
     y="-141.56146"
     id="tspan112">B</tspan></text><text
   y="-121.77792"
   x="13.677875"
   transform="scale(0.97665758,-1.0239003)"
   style="font-style:normal;font-variant:normal;font-weight:bold;font-stretch:normal;font-size:14.8616px;font-family:Calibri;-inkscape-font-specification:'Calibri, Bold';font-variant-ligatures:normal;font-variant-caps:normal;font-variant-numeric:normal;font-variant-east-asian:normal;writing-mode:lr-tb;fill:#ffffff;fill-opacity:1;fill-rule:nonzero;stroke:#231f20;stroke-width:0.10886;stroke-linecap:butt;stroke-linejoin:miter;stroke-miterlimit:10;stroke-dasharray:none;stroke-opacity:1"
   id="text120"><tspan
     style="font-style:normal;font-variant:normal;font-weight:bold;font-stretch:normal;font-size:14.8616px;font-family:Calibri;-inkscape-font-specification:'Calibri, Bold';font-variant-ligatures:normal;font-variant-caps:normal;font-variant-numeric:normal;font-variant-east-asian:normal;stroke-width:0.10886"
     x="13.677875"
     y="-121.77792"
     id="tspan118">C</tspan></text><text
   y="-97.922829"
   x="12.998501"
   transform="scale(0.96155706,-1.0399799)"
   style="font-style:normal;font-variant:normal;font-weight:bold;font-stretch:normal;font-size:15.095px;font-family:Calibri;-inkscape-font-specification:'Calibri, Bold';font-variant-ligatures:normal;font-variant-caps:normal;font-variant-numeric:normal;font-variant-east-asian:normal;writing-mode:lr-tb;fill:#ffffff;fill-opacity:1;fill-rule:nonzero;stroke:#231f20;stroke-width:0.10886;stroke-linecap:butt;stroke-linejoin:miter;stroke-miterlimit:10;stroke-dasharray:none;stroke-opacity:1"
   id="text126"><tspan
     style="font-style:normal;font-variant:normal;font-weight:bold;font-stretch:normal;font-size:15.095px;font-family:Calibri;-inkscape-font-specification:'Calibri, Bold';font-variant-ligatures:normal;font-variant-caps:normal;font-variant-numeric:normal;font-variant-east-asian:normal;stroke-width:0.10886"
     x="12.998501"
     y="-97.922829"
     id="tspan124">D</tspan></text><text
   y="-76.037956"
   x="13.770373"
   transform="scale(0.96155706,-1.0399799)"
   style="font-style:normal;font-variant:normal;font-weight:bold;font-stretch:normal;font-size:15.095px;font-family:Calibri;-inkscape-font-specification:'Calibri, Bold';font-variant-ligatures:normal;font-variant-caps:normal;font-variant-numeric:normal;font-variant-east-asian:normal;writing-mode:lr-tb;fill:#ffffff;fill-opacity:1;fill-rule:nonzero;stroke:#231f20;stroke-width:0.10886;stroke-linecap:butt;stroke-linejoin:miter;stroke-miterlimit:10;stroke-dasharray:none;stroke-opacity:1"
   id="text132"><tspan
     style="font-style:normal;font-variant:normal;font-weight:bold;font-stretch:normal;font-size:15.095px;font-family:Calibri;-inkscape-font-specification:'Calibri, Bold';font-variant-ligatures:normal;font-variant-caps:normal;font-variant-numeric:normal;font-variant-east-asian:normal;stroke-width:0.10886"
     x="13.770373"
     y="-76.037956"
     id="tspan130">E</tspan></text><g
   id="wetGripClassD"
   style="display:none"><path
     d="m 186.286,120.476 -8.74,-13.446 8.74,-13.487 h 17.808 v 26.933 h -17.808 v 0"
     style="fill:#040606;fill-opacity:1;fill-rule:nonzero;stroke:none;stroke-width:0.1"
     id="path32" /><text
     id="text138"
     fill="#ffffff"
     style="font-style:normal;font-variant:normal;font-weight:bold;font-stretch:normal;font-size:19.9063px;font-family:Calibri;-inkscape-font-specification:'Calibri, Bold';font-variant-ligatures:normal;font-variant-caps:normal;font-variant-numeric:normal;font-variant-east-asian:normal;writing-mode:lr-tb;fill:#ffffff;fill-opacity:1;fill-rule:nonzero;stroke:none;stroke-width:0.994052"
     transform="scale(0.99405229,-1.0059833)"
     x="187.52837"
     y="-99.97509">D</text></g><g
   id="fuelEfficiencyClassC"
   style="display:none"><path
     d="m 80.2449,143.125 -8.7398,-13.446 8.7398,-13.487 h 17.8082 v 26.933 H 80.2449 v 0"
     style="fill:#040606;fill-opacity:1;fill-rule:nonzero;stroke:none;stroke-width:0.1"
     id="path140" /><text
     id="text146"
     fill="#ffffff"
     style="font-style:normal;font-variant:normal;font-weight:bold;font-stretch:normal;font-size:19.9063px;font-family:Calibri;-inkscape-font-specification:'Calibri, Bold';font-variant-ligatures:normal;font-variant-caps:normal;font-variant-numeric:normal;font-variant-east-asian:normal;writing-mode:lr-tb;fill:#ffffff;fill-opacity:1;fill-rule:nonzero;stroke:none;stroke-width:0.994052"
     transform="scale(0.99405229,-1.0059833)"
     x="81.742783"
     y="-122.67832">C</text></g><path
   id="path148"
   style="fill:none;stroke:#231f20;stroke-width:0.5;stroke-linecap:butt;stroke-linejoin:miter;stroke-miterlimit:4;stroke-dasharray:none;stroke-opacity:1"
   d="M 106.299,227.594 V 73.8141" /><path
   id="path150"
   style="fill:#ffffff;fill-opacity:1;fill-rule:nonzero;stroke:none;stroke-width:0.1"
   d="m 186.588,218.96 c 0,2.173 -1.812,3.934 -4.047,3.934 -0.203,0 -0.398,-0.03 -0.593,-0.058 -0.174,2.017 -1.894,3.606 -4.014,3.606 -1.579,0 -2.932,-0.887 -3.599,-2.169 -0.441,0.395 -1.024,0.641 -1.67,0.641 -1.281,0 -2.323,-0.951 -2.45,-2.164 -0.329,0.085 -0.669,0.144 -1.026,0.144 -2.236,0 -4.048,-1.761 -4.048,-3.934 0,-2.173 1.812,-3.935 4.048,-3.935 0.041,0 13.16,0 13.352,0 2.235,0 4.047,1.762 4.047,3.935 v 0" /><path
   id="path152"
   style="fill:none;stroke:#231f20;stroke-width:0.8;stroke-linecap:round;stroke-linejoin:round;stroke-miterlimit:10;stroke-dasharray:none;stroke-opacity:1"
   d="m 186.588,218.96 c 0,2.173 -1.812,3.934 -4.047,3.934 -0.203,0 -0.398,-0.03 -0.593,-0.058 -0.174,2.017 -1.894,3.606 -4.014,3.606 -1.579,0 -2.932,-0.887 -3.599,-2.169 -0.441,0.395 -1.024,0.641 -1.67,0.641 -1.281,0 -2.323,-0.951 -2.45,-2.164 -0.329,0.085 -0.669,0.144 -1.026,0.144 -2.236,0 -4.048,-1.761 -4.048,-3.934 0,-2.173 1.812,-3.935 4.048,-3.935 0.041,0 13.16,0 13.352,0 2.235,0 4.047,1.762 4.047,3.935 z" /><path
   id="path154"
   style="fill:none;stroke:#231f20;stroke-width:0.8;stroke-linecap:round;stroke-linejoin:round;stroke-miterlimit:10;stroke-dasharray:none;stroke-opacity:1"
   d="m 175.977,209.088 -1.181,-1.675 m 3.335,4.527 -1.18,-1.676 m -2.772,1.676 -1.18,-1.676 m -2.62,1.676 -1.181,-1.676 m 11.088,4.527 -1.181,-1.675 m -2.771,1.675 -1.181,-1.675 m -2.62,1.675 -1.18,-1.675" /><path
   id="path156"
   style="fill:#ffffff;fill-opacity:1;fill-rule:nonzero;stroke:none;stroke-width:0.1"
   d="m 140.585,189.517 c -3.394,-0.13 -5.344,-0.13 -6.819,0.614 -1.098,0.554 -1.747,1.566 -1.333,2.476 0.414,0.909 1.685,1.279 2.834,0.824 1.811,-0.717 1.998,-1.898 5.318,-3.914 v 0" /><path
   id="path158"
   style="fill:none;stroke:#231f20;stroke-width:0.8;stroke-linecap:round;stroke-linejoin:round;stroke-miterlimit:10;stroke-dasharray:none;stroke-opacity:1"
   d="m 140.585,189.517 c -3.394,-0.13 -5.344,-0.13 -6.819,0.614 -1.098,0.554 -1.747,1.566 -1.333,2.476 0.414,0.909 1.685,1.279 2.834,0.824 1.811,-0.717 1.998,-1.898 5.318,-3.914 z" /><path
   id="path160"
   style="fill:#ffffff;fill-opacity:1;fill-rule:nonzero;stroke:none;stroke-width:0.1"
   d="m 160.26,189.517 c 3.394,-0.13 5.343,-0.13 6.819,0.614 1.098,0.554 1.747,1.566 1.333,2.476 -0.414,0.909 -1.685,1.279 -2.834,0.824 -1.811,-0.717 -1.998,-1.898 -5.318,-3.914 v 0" /><path
   id="path162"
   style="fill:none;stroke:#231f20;stroke-width:0.8;stroke-linecap:round;stroke-linejoin:round;stroke-miterlimit:10;stroke-dasharray:none;stroke-opacity:1"
   d="m 160.26,189.517 c 3.394,-0.13 5.343,-0.13 6.819,0.614 1.098,0.554 1.747,1.566 1.333,2.476 -0.414,0.909 -1.685,1.279 -2.834,0.824 -1.811,-0.717 -1.998,-1.898 -5.318,-3.914 z" /><path
   id="path164"
   style="fill:#ffffff;fill-opacity:1;fill-rule:nonzero;stroke:none;stroke-width:0.1"
   d="m 165.396,195.99 c 1.009,0.338 3.191,0.667 4.1,1.26 0.675,0.441 0.856,1.287 0.406,1.888 -0.451,0.6 -1.367,0.73 -2.041,0.29 -1.063,-0.694 -1.59,-2.403 -2.465,-3.438 v 0" /><path
   id="path166"
   style="fill:none;stroke:#231f20;stroke-width:0.8;stroke-linecap:round;stroke-linejoin:round;stroke-miterlimit:10;stroke-dasharray:none;stroke-opacity:1"
   d="m 165.396,195.99 c 1.009,0.338 3.191,0.667 4.1,1.26 0.675,0.441 0.856,1.287 0.406,1.888 -0.451,0.6 -1.367,0.73 -2.041,0.29 -1.063,-0.694 -1.59,-2.403 -2.465,-3.438 z" /><path
   id="path168"
   style="fill:#ffffff;fill-opacity:1;fill-rule:nonzero;stroke:none;stroke-width:0.1"
   d="m 135.449,195.99 c -1.01,0.338 -3.192,0.667 -4.101,1.26 -0.674,0.441 -0.856,1.287 -0.405,1.888 0.451,0.6 1.366,0.73 2.041,0.29 1.062,-0.694 1.59,-2.403 2.465,-3.438 v 0" /><path
   id="path170"
   style="fill:none;stroke:#231f20;stroke-width:0.8;stroke-linecap:round;stroke-linejoin:round;stroke-miterlimit:10;stroke-dasharray:none;stroke-opacity:1"
   d="m 135.449,195.99 c -1.01,0.338 -3.192,0.667 -4.101,1.26 -0.674,0.441 -0.856,1.287 -0.405,1.888 0.451,0.6 1.366,0.73 2.041,0.29 1.062,-0.694 1.59,-2.403 2.465,-3.438 z" /><path
   id="path172"
   style="fill:#231f20;fill-opacity:1;fill-rule:nonzero;stroke:none;stroke-width:0.1"
   d="m 146.414,189.894 c -4.484,0 -8.118,6.948 -8.118,15.518 0,8.57 3.634,15.518 8.118,15.518 h 9.528 c 4.483,0 8.118,-6.948 8.118,-15.518 0,-8.57 -3.635,-15.518 -8.118,-15.518 h -9.528 v 0" /><path
   id="path174"
   style="fill:none;stroke:#ffffff;stroke-width:0.338055;stroke-linecap:butt;stroke-linejoin:miter;stroke-miterlimit:10;stroke-dasharray:none;stroke-opacity:1"
   d="m 156.842,189.696 c -4.533,0 -8.054,6.981 -8.054,15.641 0,8.661 3.351,15.661 7.884,15.661" /><path
   id="path176"
   style="fill:#ffffff;fill-opacity:1;fill-rule:nonzero;stroke:none;stroke-width:0.1"
   d="m 156.722,195.561 c -2.121,0 -3.839,4.526 -3.839,10.11 0,5.584 1.718,10.111 3.839,10.111 2.12,0 3.839,-4.527 3.839,-10.111 0,-5.584 -1.719,-10.11 -3.839,-10.11 z m 0.4,20.917 c -2.494,0 -4.515,-4.805 -4.515,-10.731 0,-5.927 2.021,-10.732 4.515,-10.732 2.493,0 4.515,4.805 4.515,10.732 0,5.926 -2.022,10.731 -4.515,10.731 v 0" /><path
   id="path178"
   style="fill:#ffffff;fill-opacity:1;fill-rule:nonzero;stroke:none;stroke-width:0.1"
   d="m 153.889,212.325 -0.407,-0.687 -0.44,-2.185 -0.199,-2.407 -0.12,-3.185 0.583,-3.481 0.583,-1.773 c 1.376,0 2.492,2.938 2.492,6.563 0,3.624 -1.116,7.155 -2.492,7.155" /><path
   id="path180"
   style="fill:none;stroke:#ffffff;stroke-width:0.340745;stroke-linecap:butt;stroke-linejoin:miter;stroke-miterlimit:10;stroke-dasharray:none;stroke-opacity:1"
   d="m 148.491,189.616 c -4.606,0 -8.257,7.129 -8.257,15.789 0,8.661 3.734,15.911 8.34,15.911 m 2.398,-31.768 c -4.606,0 -8.258,7.129 -8.258,15.789 0,8.661 3.734,15.911 8.34,15.911" /><path
   id="path182"
   style="fill:none;stroke:#ffffff;stroke-width:0.334347;stroke-linecap:butt;stroke-linejoin:miter;stroke-miterlimit:10;stroke-dasharray:none;stroke-opacity:1"
   d="m 148.568,220.543 -2.482,-0.021 m 1.461,-0.717 -2.396,0.047 m 1.689,-0.807 h -2.441 m 1.687,-0.959 h -2.453 m 4.863,-27.83 -2.29,0.014 m -0.758,26.798 h -2.479 m 1.724,-1.228 h -2.312 m 1.828,-1.455 -2.521,-0.038 m 1.865,-1.939 h -2.323 m 1.879,-2.234 -2.465,0.066 m 6.865,-19.212 -2.394,-0.047 m 1.453,0.984 -2.374,-0.059 m 1.598,1.118 h -2.437 m 1.632,1.286 -2.44,0.04 m 1.829,1.467 -2.387,0.107 m 1.727,1.478 -2.404,0.148 m 1.859,2.201 -2.364,0.109 m 2.078,1.941 -2.459,0.142 m 2.283,2.402 -2.482,0.1 m 2.534,2.655 -2.394,0.162" /><path
   id="path184"
   style="fill:none;stroke:#ffffff;stroke-width:0.334014;stroke-linecap:butt;stroke-linejoin:miter;stroke-miterlimit:10;stroke-dasharray:none;stroke-opacity:1"
   d="m 152.449,189.525 c -4.425,0 -7.934,7.129 -7.934,15.79 0,8.661 3.588,15.912 8.013,15.912 m 2.305,-31.77 c -4.426,0 -7.935,7.129 -7.935,15.79 0,8.661 3.588,15.912 8.014,15.912" /><path
   id="path186"
   style="fill:none;stroke:#ffffff;stroke-width:0.327741;stroke-linecap:butt;stroke-linejoin:miter;stroke-miterlimit:10;stroke-dasharray:none;stroke-opacity:1"
   d="m 152.523,220.453 -2.385,-0.02 m 1.404,-0.718 -2.302,0.047 m 1.622,-0.807 h -2.345 m 1.621,-0.959 h -2.357 m 4.599,-27.776 -2.137,-0.082 m -0.718,26.84 h -2.382 m 1.657,-1.228 h -2.222 m 1.756,-1.455 -2.422,-0.038 m 1.792,-1.939 h -2.232 m 1.806,-2.234 -2.369,0.066 m 6.596,-19.213 -2.3,-0.047 m 1.396,0.985 -2.281,-0.06 m 1.536,1.118 h -2.342 m 1.622,1.282 -2.34,0.11 m 1.699,1.402 -2.294,0.106 m 1.66,1.478 -2.31,0.148 m 1.786,2.201 -2.271,0.109 m 1.996,1.942 -2.363,0.142 m 2.194,2.402 -2.385,0.1 m 2.435,2.654 -2.3,0.162" /><path
   id="path188"
   style="fill:#231f20;fill-opacity:1;fill-rule:nonzero;stroke:none;stroke-width:0.1"
   d="m 39.5676,189.85 c -4.45,0 -8.0574,6.999 -8.0574,15.632 0,8.634 3.6074,15.633 8.0574,15.633 h 9.4566 c 4.45,0 8.0574,-6.999 8.0574,-15.633 0,-8.633 -3.6074,-15.632 -8.0574,-15.632 h -9.4566 v 0" /><path
   id="path190"
   style="fill:none;stroke:#ffffff;stroke-width:0.338055;stroke-linecap:butt;stroke-linejoin:miter;stroke-miterlimit:10;stroke-dasharray:none;stroke-opacity:1"
   d="m 49.9176,189.648 c -4.4981,0 -7.993,7.033 -7.993,15.759 0,8.726 3.3266,15.779 7.8242,15.779" /><path
   id="path192"
   style="fill:#ffffff;fill-opacity:1;fill-rule:nonzero;stroke:none;stroke-width:0.1"
   d="m 49.7984,195.558 c -2.1046,0 -3.8105,4.56 -3.8105,10.186 0,5.625 1.7059,10.185 3.8105,10.185 2.1043,0 3.8106,-4.56 3.8106,-10.185 0,-5.626 -1.7063,-10.186 -3.8106,-10.186 z m 0.3969,21.072 c -2.475,0 -4.4812,-4.84 -4.4812,-10.811 0,-5.97 2.0062,-10.811 4.4812,-10.811 2.4746,0 4.4809,4.841 4.4809,10.811 0,5.971 -2.0063,10.811 -4.4809,10.811 v 0" /><path
   id="path194"
   style="fill:#ffffff;fill-opacity:1;fill-rule:nonzero;stroke:none;stroke-width:0.1"
   d="m 46.9867,212.447 -0.4039,-0.692 -0.4363,-2.201 -0.1985,-2.425 -0.1187,-3.209 0.5785,-3.507 0.5789,-1.786 c 1.3656,0 2.4735,2.96 2.4735,6.611 0,3.652 -1.1079,7.209 -2.4735,7.209" /><path
   id="path196"
   style="fill:none;stroke:#ffffff;stroke-width:0.340745;stroke-linecap:butt;stroke-linejoin:miter;stroke-miterlimit:10;stroke-dasharray:none;stroke-opacity:1"
   d="m 41.6301,189.568 c -4.5711,0 -8.1949,7.182 -8.1949,15.908 0,8.726 3.7054,16.03 8.2761,16.03 m 2.3801,-32.007 c -4.5711,0 -8.1949,7.182 -8.1949,15.908 0,8.726 3.7055,16.031 8.2765,16.031" /><path
   id="path198"
   style="fill:none;stroke:#ffffff;stroke-width:0.334347;stroke-linecap:butt;stroke-linejoin:miter;stroke-miterlimit:10;stroke-dasharray:none;stroke-opacity:1"
   d="m 41.7063,220.726 -2.4637,-0.02 m 1.4492,-0.722 -2.3773,0.046 m 1.6757,-0.813 H 37.568 m 1.6746,-0.965 h -2.4352 m 4.7508,-27.984 -2.2074,-0.083 m -0.7414,27.041 h -2.461 m 1.7114,-1.237 h -2.295 m 1.8141,-1.467 -2.5016,-0.038 m 1.8508,-1.953 h -2.3058 m 1.866,-2.251 -2.4469,0.066 m 6.8125,-19.356 -2.375,-0.047 m 1.4418,0.992 -2.357,-0.06 m 1.5871,1.126 h -2.4192 m 1.6754,1.292 -2.5097,0.194 m 1.8476,1.328 -2.3691,0.108 m 1.7148,1.489 -2.3867,0.149 m 1.8453,2.217 -2.3465,0.11 m 2.0621,1.956 -2.4402,0.144 m 2.2656,2.42 -2.4632,0.1 m 2.5148,2.674 -2.3758,0.164" /><path
   id="path200"
   style="fill:none;stroke:#ffffff;stroke-width:0.334014;stroke-linecap:butt;stroke-linejoin:miter;stroke-miterlimit:10;stroke-dasharray:none;stroke-opacity:1"
   d="m 45.5582,189.476 c -4.3922,0 -7.8742,7.183 -7.8742,15.909 0,8.726 3.5605,16.031 7.9527,16.031 m 2.2867,-32.008 c -4.3921,0 -7.8742,7.182 -7.8742,15.908 0,8.727 3.5606,16.03 7.9524,16.03" /><path
   id="path202"
   style="fill:none;stroke:#ffffff;stroke-width:0.327741;stroke-linecap:butt;stroke-linejoin:miter;stroke-miterlimit:10;stroke-dasharray:none;stroke-opacity:1"
   d="m 45.6313,220.636 -2.3672,-0.021 m 1.3929,-0.722 -2.2843,0.047 m 1.6097,-0.813 h -2.3269 m 1.6086,-0.966 h -2.3399 m 4.5645,-27.984 -2.1203,-0.083 m -0.7125,27.041 H 40.291 m 1.6445,-1.237 h -2.205 m 1.7429,-1.466 -2.4035,-0.039 m 1.7781,-1.953 h -2.2152 m 1.7926,-2.25 -2.3512,0.065 m 6.5465,-19.356 -2.2824,-0.047 m 1.3851,0.991 -2.2644,-0.06 m 1.525,1.127 h -2.3246 m 1.6097,1.291 -2.4117,0.195 m 1.7754,1.328 -2.2758,0.108 m 1.6469,1.489 -2.293,0.149 m 1.7731,2.217 -2.2543,0.11 m 1.9812,1.956 -2.3453,0.144 m 2.1774,2.42 -2.3672,0.1 m 2.4172,2.675 -2.2832,0.163" /><path
   id="path204"
   style="fill:#ffffff;fill-opacity:1;fill-rule:nonzero;stroke:none;stroke-width:0.1"
   d="m 71.0297,218.763 h -6.7699 c -0.6493,0 -1.1758,0.485 -1.1758,1.083 v 4.004 c 0,0.598 0.5265,1.083 1.1758,1.083 h 6.7699 c 0.6496,0 1.1758,-0.485 1.1758,-1.083 v -4.004 c 0,-0.598 -0.5262,-1.083 -1.1758,-1.083 z M 60.1625,204.322 h 14.7512 m -13.4684,0 v 20.611 c 0,0.834 0.7332,1.509 1.6387,1.509 h 8.9078 c 0.9051,0 1.6391,-0.675 1.6391,-1.509 v -20.611" /><path
   id="path206"
   style="fill:none;stroke:#231f20;stroke-width:0.8;stroke-linecap:round;stroke-linejoin:round;stroke-miterlimit:10;stroke-dasharray:none;stroke-opacity:1"
   d="m 71.0297,218.763 h -6.7699 c -0.6493,0 -1.1758,0.485 -1.1758,1.083 v 4.004 c 0,0.598 0.5265,1.083 1.1758,1.083 h 6.7699 c 0.6496,0 1.1758,-0.485 1.1758,-1.083 v -4.004 c 0,-0.598 -0.5262,-1.083 -1.1758,-1.083 z M 60.1625,204.322 h 14.7512 m -13.4684,0 v 20.611 c 0,0.834 0.7332,1.509 1.6387,1.509 h 8.9078 c 0.9051,0 1.6391,-0.675 1.6391,-1.509 v -20.611" /><path
   id="path208"
   style="fill:#ffffff;fill-opacity:1;fill-rule:nonzero;stroke:none;stroke-width:0.1"
   d="m 75.3336,222.039 c 1.0719,0 1.1309,-0.219 1.1309,-1.455 V 208.76 c 0,-0.748 -0.3489,-1.354 -0.779,-1.354 v 0 c -0.43,0 -0.7792,0.606 -0.7792,1.354 v 7.798 c 0,0.925 -0.4317,1.676 -0.9645,1.676 v 0" /><path
   id="path210"
   style="fill:none;stroke:#231f20;stroke-width:0.8;stroke-linecap:round;stroke-linejoin:round;stroke-miterlimit:10;stroke-dasharray:none;stroke-opacity:1"
   d="m 75.3336,222.039 c 1.0719,0 1.1309,-0.219 1.1309,-1.455 V 208.76 c 0,-0.748 -0.3489,-1.354 -0.779,-1.354 v 0 c -0.43,0 -0.7792,0.606 -0.7792,1.354 v 7.798 c 0,0.925 -0.4317,1.676 -0.9645,1.676 v 0" /><path
   id="path212"
   style="fill:#231f20;fill-opacity:1;fill-rule:nonzero;stroke:none;stroke-width:0.1"
   d="m 64.5527,209.652 c 1.0789,0 1.8668,1.248 1.2207,2.516 -0.3707,0.727 -1.2121,2.045 -1.2121,2.045 0,0 -0.8418,-1.318 -1.2117,-2.045 -0.6461,-1.268 0.1238,-2.516 1.2031,-2.516 v 0" /><path
   id="path214"
   style="fill:#231f20;fill-opacity:1;fill-rule:nonzero;stroke:none;stroke-width:0.1"
   d="m 71.234,214.691 -2.2301,-3.397 h 1.6223 l -0.7102,-2.435 2.2738,3.321 -1.598,0.085 0.6422,2.426 v 0" /><path
   id="path216"
   style="fill:none;stroke:#231f20;stroke-width:0.8;stroke-linecap:round;stroke-linejoin:round;stroke-miterlimit:10;stroke-dasharray:none;stroke-opacity:1"
   d="m 67.6023,215.58 v -6.8" /><path
   id="path218"
   style="fill:none;stroke:#ffffff;stroke-width:0.5;stroke-linecap:round;stroke-linejoin:round;stroke-miterlimit:10;stroke-dasharray:none;stroke-opacity:1"
   d="m 63.8879,211.188 c 0,-0.085 0.0535,-0.438 0.534,-0.616" /><path
   id="path220"
   style="fill:#ffffff;fill-opacity:1;fill-rule:nonzero;stroke:none;stroke-width:0.1"
   d="m 73.734,220.389 h 1.57578 v 2.14688 H 73.734 Z" /><path
   id="path222"
   style="fill:none;stroke:#231f20;stroke-width:0.8;stroke-linecap:round;stroke-linejoin:round;stroke-miterlimit:10;stroke-dasharray:none;stroke-opacity:1"
   d="m 73.734,220.389 h 1.5758 v 2.147 H 73.734" /><path
   id="path224"
   style="fill:#231f20;fill-opacity:1;fill-rule:nonzero;stroke:none;stroke-width:0.1"
   d="m 20.0543,8.54609 c -4.5035,0 -8.1551,6.99801 -8.1551,15.63201 0,8.6328 3.6516,15.6321 8.1551,15.6321 h 9.5707 c 4.5039,0 8.1547,-6.9993 8.1547,-15.6321 0,-8.634 -3.6508,-15.63201 -8.1547,-15.63201 h -9.5707 v 0" /><path
   id="path226"
   style="fill:none;stroke:#ffffff;stroke-width:0.332166;stroke-linecap:butt;stroke-linejoin:miter;stroke-miterlimit:10;stroke-dasharray:none;stroke-opacity:1"
   d="m 30.5289,8.34102 c -4.5547,0 -8.0937,7.03398 -8.0937,15.76098 0,8.7269 3.3679,15.7812 7.9234,15.7812" /><path
   id="path228"
   style="fill:#ffffff;fill-opacity:1;fill-rule:nonzero;stroke:none;stroke-width:0.1"
   d="m 30.4086,14.2539 c -2.1297,0 -3.8563,4.5602 -3.8563,10.1852 0,5.625 1.7266,10.1839 3.8563,10.1839 2.1297,0 3.8559,-4.5589 3.8559,-10.1839 0,-5.625 -1.7262,-10.1852 -3.8559,-10.1852 z m 0.4016,21.0711 c -2.5051,0 -4.5352,-4.8398 -4.5352,-10.8102 0,-5.9707 2.0301,-10.8109 4.5352,-10.8109 2.5046,0 4.5351,4.8402 4.5351,10.8109 0,5.9704 -2.0305,10.8102 -4.5351,10.8102 v 0" /><path
   id="path230"
   style="fill:#ffffff;fill-opacity:1;fill-rule:nonzero;stroke:none;stroke-width:0.1"
   d="M 27.5629,31.1422 27.1543,30.45 26.7125,28.248 26.5117,25.8238 26.391,22.6148 26.977,19.1082 27.5629,17.323 c 1.3824,0 2.5031,2.9598 2.5031,6.611 0,3.6512 -1.1207,7.2082 -2.5031,7.2082" /><path
   id="path232"
   style="fill:none;stroke:#ffffff;stroke-width:0.334809;stroke-linecap:butt;stroke-linejoin:miter;stroke-miterlimit:10;stroke-dasharray:none;stroke-opacity:1"
   d="m 22.1402,8.26094 c -4.6285,0 -8.2972,7.18316 -8.2972,15.91016 0,8.7269 3.7515,16.0328 8.3797,16.0328 M 24.6324,8.19219 c -4.6281,0 -8.2972,7.18401 -8.2972,15.91091 0,8.727 3.7515,16.0321 8.3796,16.0321" /><path
   id="path234"
   style="fill:none;stroke:#ffffff;stroke-width:0.328522;stroke-linecap:butt;stroke-linejoin:miter;stroke-miterlimit:10;stroke-dasharray:none;stroke-opacity:1"
   d="M 22.2188,39.4242 19.725,39.4039 m 1.4676,-0.723 -2.4067,0.0472 m 1.6961,-0.8133 h -2.4515 m 1.6945,-0.966 H 17.2605 M 22.0684,8.96094 19.8344,8.87813 m -0.75,27.04487 h -2.4906 m 1.732,-1.2371 h -2.3223 m 1.8356,-1.4668 -2.5321,-0.0382 m 1.8731,-1.9539 h -2.3332 m 1.8879,-2.2508 -2.4766,0.066 M 21.1539,9.68398 18.75,9.63594 m 1.459,0.99216 -2.3852,-0.0601 m 1.6063,1.1261 h -2.4488 m 1.6957,1.2918 -2.5403,0.195 m 1.8699,1.3281 -2.3972,0.1082 m 1.7351,1.4887 -2.4152,0.1492 m 1.8676,2.2179 -2.375,0.1102 m 2.0875,1.9559 -2.4703,0.1441 m 2.2929,2.4199 -2.4929,0.1 m 2.5453,2.675 -2.4043,0.1629" /><path
   id="path236"
   style="fill:none;stroke:#ffffff;stroke-width:0.328196;stroke-linecap:butt;stroke-linejoin:miter;stroke-miterlimit:10;stroke-dasharray:none;stroke-opacity:1"
   d="m 26.1156,8.16992 c -4.4468,0 -7.9726,7.18318 -7.9726,15.91018 0,8.7269 3.605,16.0328 8.0523,16.0328 M 28.5105,8.10117 c -4.4468,0 -7.9722,7.18283 -7.9722,15.91093 0,8.727 3.6047,16.032 8.0515,16.032" /><path
   id="path238"
   style="fill:none;stroke:#ffffff;stroke-width:0.322032;stroke-linecap:butt;stroke-linejoin:miter;stroke-miterlimit:10;stroke-dasharray:none;stroke-opacity:1"
   d="m 26.1914,39.3332 -2.3961,-0.0203 m 1.4098,-0.7231 -2.3121,0.0473 m 1.6297,-0.8133 h -2.3555 m 1.6281,-0.9656 h -2.368 M 26.0469,8.86992 23.9004,8.78711 M 23.1797,35.832 h -2.3938 m 1.6649,-1.2371 h -2.232 m 1.764,-1.4668 -2.4324,-0.0383 M 21.35,31.1359 h -2.2422 m 1.8141,-2.25 -2.3793,0.0661 M 25.168,9.59219 22.8586,9.54492 m 1.4019,0.99218 -2.2917,-0.0601 m 1.5429,1.1261 h -2.3523 m 1.6289,1.2918 -2.4406,0.1949 m 1.7968,1.3282 -2.3039,0.1082 m 1.6672,1.4886 -2.3207,0.1493 m 1.7942,2.2179 -2.2817,0.1102 m 2.0055,1.9558 -2.3731,0.1442 m 2.2032,2.4199 -2.3961,0.1 m 2.4464,2.675 -2.3105,0.1641" /><g
   id="noiseClassB"
   style="display:none"><text
     id="text543"
     style="font-variant:normal;font-weight:normal;font-size:8px;font-family:Verdana;-inkscape-font-specification:Verdana;text-align:center;writing-mode:lr-tb;text-anchor:middle;fill:#231f20;fill-opacity:1;fill-rule:nonzero;stroke:none"
     transform="scale(1,-1)"
     x="37.272686"
     y="-8.8789101"><tspan
       style="text-align:start;text-anchor:start"
       id="tspan1147">A</tspan></text><text
     id="text542"
     style="font-style:normal;font-variant:normal;font-weight:bold;font-stretch:normal;font-size:12px;font-family:Verdana;-inkscape-font-specification:'Verdana, Bold';font-variant-ligatures:normal;font-variant-caps:normal;font-variant-numeric:normal;font-variant-east-asian:normal;text-align:center;writing-mode:lr-tb;text-anchor:middle;fill:#231f20;fill-opacity:1;fill-rule:nonzero;stroke:none"
     transform="scale(1,-1)"
     x="43.623657"
     y="-8.8631687"><tspan
       style="font-style:normal;font-variant:normal;font-weight:bold;font-stretch:normal;font-size:12px;font-family:Verdana;-inkscape-font-specification:'Verdana, Bold';font-variant-ligatures:normal;font-variant-caps:normal;font-variant-numeric:normal;font-variant-east-asian:normal;text-align:start;text-anchor:start"
       id="tspan1149">B</tspan></text><text
     id="text541"
     style="font-style:normal;font-variant:normal;font-weight:normal;font-stretch:normal;font-size:8px;font-family:Verdana;-inkscape-font-specification:'Verdana, Normal';font-variant-ligatures:normal;font-variant-caps:normal;font-variant-numeric:normal;font-variant-east-asian:normal;text-align:center;writing-mode:lr-tb;text-anchor:middle;opacity:0.86;fill:#231f20;fill-opacity:1;fill-rule:nonzero;stroke:none"
     transform="scale(1,-1)"
     x="53.849888"
     y="-8.9755077"><tspan
       style="text-align:start;text-anchor:start"
       id="tspan1151">C</tspan></text></g><path
   id="path254"
   style="fill:#ffffff;fill-opacity:1;fill-rule:nonzero;stroke:none;stroke-width:0.1"
   d="m 65.6555,30.6898 c 1.0879,2.6391 1.6922,5.5192 1.6922,8.5391 0,3.5492 -0.8266,6.9082 -2.3024,9.9051 M 76.8887,26.2051 c 1.6664,4.023 2.5922,8.4168 2.5922,13.0238 0,5.4141 -1.2676,10.5371 -3.5274,15.1043 m -4.5972,-25.7 c 1.3542,3.2758 2.1066,6.8527 2.1066,10.6027 0,4.4071 -1.0297,8.5782 -2.8656,12.2969 M 58.7621,58.3559 V 20.1031 L 43.9625,29.2699 H 27.248 v 19.716 h 16.7145 l 14.7996,9.37 v 0" /><path
   id="path256"
   style="fill:none;stroke:#231f20;stroke-width:0.8;stroke-linecap:round;stroke-linejoin:round;stroke-miterlimit:10;stroke-dasharray:none;stroke-opacity:1"
   d="m 65.6555,30.6898 c 1.0879,2.6391 1.6922,5.5192 1.6922,8.5391 0,3.5492 -0.8266,6.9082 -2.3024,9.9051 M 76.8887,26.2051 c 1.6664,4.023 2.5922,8.4168 2.5922,13.0238 0,5.4141 -1.2676,10.5371 -3.5274,15.1043 m -4.5972,-25.7 c 1.3542,3.2758 2.1066,6.8527 2.1066,10.6027 0,4.4071 -1.0297,8.5782 -2.8656,12.2969 M 58.7621,58.3559 V 20.1031 L 43.9625,29.2699 H 27.248 v 19.716 h 16.7145 z" /><text
   y="-35.573799"
   x="30.0383"
   transform="scale(1,-1)"
   style="font-variant:normal;font-weight:bold;font-size:10px;font-family:Verdana;-inkscape-font-specification:Verdana-Bold;writing-mode:lr-tb;fill:#231f20;fill-opacity:1;fill-rule:nonzero;stroke:none"
   id="noiseLevel">[NOISE]</text><text
   y="-35.573799"
   x="45.647701"
   transform="scale(1,-1)"
   style="font-variant:normal;font-weight:normal;font-size:8px;font-family:Verdana;-inkscape-font-specification:Verdana;writing-mode:lr-tb;fill:#231f20;fill-opacity:1;fill-rule:nonzero;stroke:none"
   id="text266"><tspan
     x="45.647701 50.631699"
     y="-35.573799"
     sodipodi:role="line"
     id="tspan264">dB</tspan></text><g
   id="iceCapable"
   style="display:none"><g
     clip-path="url(#clipPath274)"
     id="g270"
     transform="scale(0.1)"><g
       clip-path="url(#clipPath280)"
       id="g276"><path
         id="path282"
         style="fill:none;stroke:#231f20;stroke-width:1.77531;stroke-linecap:butt;stroke-linejoin:miter;stroke-miterlimit:4;stroke-dasharray:none;stroke-opacity:1"
         d="M 1221.89,609.352 1583,-30.1602" /></g></g><g
     clip-path="url(#clipPath290)"
     id="g286"
     transform="scale(0.1)"><g
       clip-path="url(#clipPath296)"
       id="g292"><path
         id="path298"
         style="fill:none;stroke:#231f20;stroke-width:1.77531;stroke-linecap:butt;stroke-linejoin:miter;stroke-miterlimit:4;stroke-dasharray:none;stroke-opacity:1"
         d="M 1238.34,610.129 1599.45,-29.3906" /></g></g><g
     clip-path="url(#clipPath306)"
     id="g302"
     transform="scale(0.1)"><g
       clip-path="url(#clipPath312)"
       id="g308"><path
         id="path314"
         style="fill:none;stroke:#231f20;stroke-width:1.77531;stroke-linecap:butt;stroke-linejoin:miter;stroke-miterlimit:4;stroke-dasharray:none;stroke-opacity:1"
         d="M 1254.8,610.91 1615.91,-28.6094" /></g></g><g
     clip-path="url(#clipPath322)"
     id="g318"
     transform="scale(0.1)"><g
       clip-path="url(#clipPath328)"
       id="g324"><path
         id="path330"
         style="fill:none;stroke:#231f20;stroke-width:1.77531;stroke-linecap:butt;stroke-linejoin:miter;stroke-miterlimit:4;stroke-dasharray:none;stroke-opacity:1"
         d="M 1271.25,611.68 1632.37,-27.8281" /></g></g><g
     clip-path="url(#clipPath338)"
     id="g334"
     transform="scale(0.1)"><g
       clip-path="url(#clipPath344)"
       id="g340"><path
         id="path346"
         style="fill:none;stroke:#231f20;stroke-width:1.77531;stroke-linecap:butt;stroke-linejoin:miter;stroke-miterlimit:4;stroke-dasharray:none;stroke-opacity:1"
         d="M 1287.71,612.461 1648.82,-27.0586" /></g></g><g
     clip-path="url(#clipPath354)"
     id="g350"
     transform="scale(0.1)"><g
       clip-path="url(#clipPath360)"
       id="g356"><path
         id="path362"
         style="fill:none;stroke:#231f20;stroke-width:1.77531;stroke-linecap:butt;stroke-linejoin:miter;stroke-miterlimit:4;stroke-dasharray:none;stroke-opacity:1"
         d="M 1304.16,613.23 1665.28,-26.2813" /></g></g><g
     clip-path="url(#clipPath370)"
     id="g366"
     transform="scale(0.1)"><g
       clip-path="url(#clipPath376)"
       id="g372"><path
         id="path378"
         style="fill:none;stroke:#231f20;stroke-width:1.77531;stroke-linecap:butt;stroke-linejoin:miter;stroke-miterlimit:4;stroke-dasharray:none;stroke-opacity:1"
         d="M 1320.62,614.012 1681.73,-25.5117" /></g></g><g
     clip-path="url(#clipPath386)"
     id="g382"
     transform="scale(0.1)"><g
       clip-path="url(#clipPath392)"
       id="g388"><path
         id="path394"
         style="fill:none;stroke:#231f20;stroke-width:1.77531;stroke-linecap:butt;stroke-linejoin:miter;stroke-miterlimit:4;stroke-dasharray:none;stroke-opacity:1"
         d="M 1337.07,614.789 1698.19,-24.7305" /></g></g><g
     clip-path="url(#clipPath402)"
     id="g398"
     transform="scale(0.1)"><g
       clip-path="url(#clipPath408)"
       id="g404"><path
         id="path410"
         style="fill:none;stroke:#231f20;stroke-width:1.77531;stroke-linecap:butt;stroke-linejoin:miter;stroke-miterlimit:4;stroke-dasharray:none;stroke-opacity:1"
         d="M 1353.53,615.559 1714.64,-23.9492" /></g></g><g
     clip-path="url(#clipPath418)"
     id="g414"
     transform="scale(0.1)"><g
       clip-path="url(#clipPath424)"
       id="g420"><path
         id="path426"
         style="fill:none;stroke:#231f20;stroke-width:1.77531;stroke-linecap:butt;stroke-linejoin:miter;stroke-miterlimit:4;stroke-dasharray:none;stroke-opacity:1"
         d="M 1369.98,616.34 1731.1,-23.1797" /></g></g><g
     clip-path="url(#clipPath434)"
     id="g430"
     transform="scale(0.1)"><g
       clip-path="url(#clipPath440)"
       id="g436"><path
         id="path442"
         style="fill:none;stroke:#231f20;stroke-width:1.77531;stroke-linecap:butt;stroke-linejoin:miter;stroke-miterlimit:4;stroke-dasharray:none;stroke-opacity:1"
         d="M 1386.44,617.109 1747.55,-22.3984" /></g></g><g
     clip-path="url(#clipPath450)"
     id="g446"
     transform="scale(0.1)"><g
       clip-path="url(#clipPath456)"
       id="g452"><path
         id="path458"
         style="fill:none;stroke:#231f20;stroke-width:1.77531;stroke-linecap:butt;stroke-linejoin:miter;stroke-miterlimit:4;stroke-dasharray:none;stroke-opacity:1"
         d="M 1402.89,617.891 1764.01,-21.6289" /></g></g><g
     clip-path="url(#clipPath466)"
     id="g462"
     transform="scale(0.1)"><g
       clip-path="url(#clipPath472)"
       id="g468"><path
         id="path474"
         style="fill:none;stroke:#231f20;stroke-width:1.77531;stroke-linecap:butt;stroke-linejoin:miter;stroke-miterlimit:4;stroke-dasharray:none;stroke-opacity:1"
         d="M 1419.35,618.672 1780.46,-20.8516" /></g></g><g
     clip-path="url(#clipPath482)"
     id="g478"
     transform="scale(0.1)"><g
       clip-path="url(#clipPath488)"
       id="g484"><path
         id="path490"
         style="fill:none;stroke:#231f20;stroke-width:1.77531;stroke-linecap:butt;stroke-linejoin:miter;stroke-miterlimit:4;stroke-dasharray:none;stroke-opacity:1"
         d="M 1435.81,619.441 1796.92,-20.0703" /></g></g><g
     clip-path="url(#clipPath498)"
     id="g494"
     transform="scale(0.1)"><g
       clip-path="url(#clipPath504)"
       id="g500"><path
         id="path506"
         style="fill:none;stroke:#231f20;stroke-width:1.77531;stroke-linecap:butt;stroke-linejoin:miter;stroke-miterlimit:4;stroke-dasharray:none;stroke-opacity:1"
         d="M 1452.26,620.219 1813.37,-19.3008" /></g></g><g
     clip-path="url(#clipPath514)"
     id="g510"
     transform="scale(0.1)"><g
       clip-path="url(#clipPath520)"
       id="g516"><path
         id="path522"
         style="fill:none;stroke:#231f20;stroke-width:1.77531;stroke-linecap:butt;stroke-linejoin:miter;stroke-miterlimit:4;stroke-dasharray:none;stroke-opacity:1"
         d="M 1468.72,620.988 1829.83,-18.5195" /></g></g><g
     clip-path="url(#clipPath530)"
     id="g526"
     transform="scale(0.1)"><g
       clip-path="url(#clipPath536)"
       id="g532"><path
         id="path538"
         style="fill:none;stroke:#231f20;stroke-width:1.77531;stroke-linecap:butt;stroke-linejoin:miter;stroke-miterlimit:4;stroke-dasharray:none;stroke-opacity:1"
         d="M 1485.17,621.77 1846.28,-17.75" /></g></g><g
     clip-path="url(#clipPath546)"
     id="g542"
     transform="scale(0.1)"><g
       clip-path="url(#clipPath552)"
       id="g548"><path
         id="path554"
         style="fill:none;stroke:#231f20;stroke-width:1.77531;stroke-linecap:butt;stroke-linejoin:miter;stroke-miterlimit:4;stroke-dasharray:none;stroke-opacity:1"
         d="M 1501.63,622.551 1862.74,-16.9688" /></g></g><path
     style="fill:none;stroke:#231f20;stroke-width:0.8;stroke-linecap:round;stroke-linejoin:round;stroke-miterlimit:10;stroke-dasharray:none;stroke-opacity:1"
     d="m 148.211,11.4242 9.466,16.8059 2.197,-3.4422 1.247,3.2293 2.551,-8.6742 1.871,7.257 1.531,-2.4949 2.154,6.8179 11.037,-19.4988 z"
     id="path2163" /><path
     style="fill:none;stroke:#231f20;stroke-width:0.8;stroke-linecap:round;stroke-linejoin:round;stroke-miterlimit:10;stroke-dasharray:none;stroke-opacity:1"
     d="M 184.902,8.90391 H 143.535 L 164.219,44.9539 Z"
     id="path2161" /></g><g
   id="snowCapable"
   style="display:none"><path
     style="fill:none;stroke:#231f20;stroke-width:0.8;stroke-linecap:round;stroke-linejoin:round;stroke-miterlimit:10;stroke-dasharray:none;stroke-opacity:1"
     d="m 86.5176,9.00391 7.5461,19.29099 2.741,-3.864 9.5283,23.4582 5.142,-12.1481 1.73,4.1852 14.679,-30.92229 z"
     id="path556" /><path
     d="m 113.71,27.4641 -2.796,-0.8743 -0.925,3.1102 m -7.024,-14.9719 2.795,0.875 0.925,-3.1101 m -2.058,0.289 7.593,16.9969 m 3.885,-10.582 -2.199,2.2562 1.957,2.3129 m -15.618,-0.2121 2.199,-2.257 -1.958,-2.3117 m -0.7047,2.4019 17.3677,-0.073 m -6.284,-8.202 0.596,3.1301 2.883,-0.7973 m -8.594,14.759 -0.596,-3.1301 -2.883,0.7973 m 1.352,1.832 9.581,-16.4551"
     style="fill:none;stroke:#231f20;stroke-width:1.15334;stroke-linecap:round;stroke-linejoin:round;stroke-miterlimit:10;stroke-dasharray:none;stroke-opacity:1"
     id="path558" /><path
     d="m 108.32,18.616 c 1.412,0 2.557,1.2231 2.557,2.7328 0,1.5094 -1.145,2.7321 -2.557,2.7321 -1.413,0 -2.558,-1.2227 -2.558,-2.7321 0,-1.5097 1.145,-2.7328 2.558,-2.7328 v 0"
     style="fill:#231f20;fill-opacity:1;fill-rule:nonzero;stroke:none;stroke-width:0.1"
     id="path560" /></g><path
   id="path562"
   style="fill:#254aa5;fill-opacity:1;fill-rule:nonzero;stroke:none;stroke-width:0.1"
   d="M 8.50391,272.126 H 53.8586 v 31.181 H 8.50391 v -31.181 0" /><path
   id="path564"
   style="fill:#fff200;fill-opacity:1;fill-rule:nonzero;stroke:none;stroke-width:0.1"
   d="m 31.6723,298.873 h 1.5789 l -1.2723,-1.018 0.4941,-1.615 -1.2667,0.995 -1.2668,-0.995 0.4992,1.615 -1.2821,1.018 h 1.5731 l 0.4766,1.576 0.466,-1.576 v 0" /><path
   id="path566"
   style="fill:#fff200;fill-opacity:1;fill-rule:nonzero;stroke:none;stroke-width:0.1"
   d="m 31.7285,278.08 h 1.5801 l -1.2719,-0.983 0.4942,-1.552 -1.2672,0.957 -1.2672,-0.957 0.4996,1.552 -1.2848,0.983 h 1.5762 l 0.4762,1.515 0.4648,-1.515 v 0" /><path
   id="path568"
   style="fill:#fff200;fill-opacity:1;fill-rule:nonzero;stroke:none;stroke-width:0.1"
   d="m 36.7336,279.457 h 1.5805 l -1.2727,-0.98 0.4945,-1.555 -1.2664,0.96 -1.2672,-0.96 0.4993,1.555 -1.2844,0.98 h 1.5754 l 0.4769,1.516 0.4641,-1.516 v 0" /><path
   id="path570"
   style="fill:#fff200;fill-opacity:1;fill-rule:nonzero;stroke:none;stroke-width:0.1"
   d="m 36.7336,297.487 h 1.5805 l -1.2727,-0.98 0.4945,-1.555 -1.2664,0.958 -1.2672,-0.958 0.4993,1.555 -1.2844,0.98 h 1.5754 l 0.4769,1.516 0.4641,-1.516 v 0" /><path
   id="path572"
   style="fill:#fff200;fill-opacity:1;fill-rule:nonzero;stroke:none;stroke-width:0.1"
   d="m 40.4492,293.668 h 1.5778 l -1.2719,-0.979 0.4945,-1.555 -1.2672,0.957 -1.264,-0.957 0.4988,1.555 -1.2848,0.979 h 1.5731 l 0.4769,1.516 0.4668,-1.516 v 0" /><path
   id="path574"
   style="fill:#fff200;fill-opacity:1;fill-rule:nonzero;stroke:none;stroke-width:0.1"
   d="m 40.4492,283.223 h 1.5778 l -1.2719,-0.982 0.4945,-1.554 -1.2672,0.959 -1.264,-0.959 0.4988,1.554 -1.2848,0.982 h 1.5731 l 0.4769,1.517 0.4668,-1.517 v 0" /><path
   id="path576"
   style="fill:#fff200;fill-opacity:1;fill-rule:nonzero;stroke:none;stroke-width:0.1"
   d="m 41.8414,288.525 h 1.5809 l -1.2723,-0.98 0.4941,-1.555 -1.2671,0.96 -1.2665,-0.96 0.4989,1.555 -1.284,0.98 h 1.5726 l 0.479,1.515 0.4644,-1.515 v 0" /><path
   id="path578"
   style="fill:#fff200;fill-opacity:1;fill-rule:nonzero;stroke:none;stroke-width:0.1"
   d="m 26.5703,297.474 h 1.5777 l -1.2718,-0.981 0.4945,-1.555 -1.2672,0.959 -1.2672,-0.959 0.4996,1.555 -1.2824,0.981 h 1.5735 l 0.4765,1.516 0.4668,-1.516 v 0" /><path
   id="path580"
   style="fill:#fff200;fill-opacity:1;fill-rule:nonzero;stroke:none;stroke-width:0.1"
   d="m 22.9574,293.655 h 1.5809 l -1.2727,-0.98 0.4922,-1.554 -1.2652,0.958 -1.2664,-0.958 0.498,1.554 -1.2832,0.98 h 1.5754 l 0.4762,1.516 0.4648,-1.516 v 0" /><path
   id="path582"
   style="fill:#fff200;fill-opacity:1;fill-rule:nonzero;stroke:none;stroke-width:0.1"
   d="m 21.6168,288.513 h 1.5789 l -1.2719,-0.981 0.4942,-1.555 -1.2672,0.957 -1.2668,-0.957 0.4992,1.555 -1.282,0.981 h 1.573 l 0.4766,1.515 0.466,-1.515 v 0" /><path
   id="path584"
   style="fill:#fff200;fill-opacity:1;fill-rule:nonzero;stroke:none;stroke-width:0.1"
   d="m 22.9574,283.211 h 1.5809 l -1.2727,-0.982 0.4922,-1.555 -1.2652,0.958 -1.2664,-0.958 0.498,1.555 -1.2832,0.982 h 1.5754 l 0.4762,1.514 0.4648,-1.514 v 0" /><path
   id="path586"
   style="fill:#fff200;fill-opacity:1;fill-rule:nonzero;stroke:none;stroke-width:0.1"
   d="m 26.6227,279.444 h 1.5781 l -1.2723,-0.98 0.4918,-1.555 -1.2644,0.96 -1.2668,-0.96 0.4992,1.555 -1.282,0.98 h 1.573 l 0.4766,1.516 0.4668,-1.516 v 0" /><path
   id="path588"
   style="fill:#254aa5;fill-opacity:1;fill-rule:nonzero;stroke:none;stroke-width:0.1"
   d="m 64.1328,294.143 v -4.176 h 9.8059 v -4.273 h -9.8059 v -4.795 H 74.359 v -4.274 H 59.6469 v 21.888 H 74.359 v -4.37 H 64.1328 v 0" /><path
   id="path590"
   style="fill:#254aa5;fill-opacity:1;fill-rule:nonzero;stroke:none;stroke-width:0.1"
   d="m 95.6199,298.513 v -21.888 h -5.3558 l -9.0012,14.549 V 276.625 H 76.777 v 21.888 h 5.3558 l 9.0016,-14.744 v 14.744 h 4.4855 v 0" /><path
   id="path592"
   style="fill:#254aa5;fill-opacity:1;fill-rule:nonzero;stroke:none;stroke-width:0.1"
   d="m 102.653,294.143 v -4.176 h 9.806 v -4.273 h -9.806 v -4.795 h 10.226 v -4.274 H 98.1676 v 21.888 h 14.7114 v -4.37 h -10.226 v 0" /><path
   id="path594"
   style="fill:#254aa5;fill-opacity:1;fill-rule:nonzero;stroke:none;stroke-width:0.1"
   d="m 119.717,288.694 h 5.065 c 0.645,0 1.173,0.044 1.582,0.131 0.408,0.088 0.71,0.197 0.903,0.327 0.324,0.262 0.486,0.924 0.486,1.989 0,1.197 -0.099,1.99 -0.291,2.382 -0.195,0.435 -0.829,0.652 -1.906,0.652 h -5.839 z m -4.515,-12.069 v 21.888 h 10.324 c 1.204,0 2.236,-0.12 3.097,-0.358 0.861,-0.239 1.569,-0.626 2.13,-1.159 0.558,-0.532 0.972,-1.239 1.242,-2.12 0.268,-0.88 0.402,-1.951 0.402,-3.213 0,-0.696 -0.044,-1.359 -0.128,-1.989 -0.087,-0.631 -0.205,-1.197 -0.355,-1.697 -0.195,-0.566 -0.54,-1.054 -1.032,-1.467 0.429,-0.457 0.747,-1.001 0.951,-1.631 0.204,-0.631 0.306,-1.327 0.306,-2.088 v -6.166 h -4.614 v 5.677 c 0,0.825 -0.192,1.391 -0.579,1.696 -0.387,0.303 -0.999,0.457 -1.84,0.457 h -5.389 v -7.83 h -4.515 v 0" /><path
   id="path596"
   style="fill:#254aa5;fill-opacity:1;fill-rule:nonzero;stroke:none;stroke-width:0.1"
   d="m 142.335,288.694 h 10.484 c 0.108,-0.826 0.165,-1.439 0.177,-1.842 0.012,-0.403 0.015,-0.756 0.015,-1.059 v -1.795 c 0,-1.696 -0.237,-3.196 -0.708,-4.502 -0.303,-0.827 -0.801,-1.473 -1.5,-1.941 -0.699,-0.468 -1.651,-0.778 -2.857,-0.93 -0.645,-0.064 -1.311,-0.108 -1.998,-0.13 -0.69,-0.021 -1.377,-0.033 -2.065,-0.033 -3.441,0 -5.809,0.555 -7.099,1.664 -1.398,1.153 -2.097,3.425 -2.097,6.818 0,0.457 0,0.914 0,1.37 0,0.457 0.012,0.924 0.033,1.402 v 2.577 c 0,2.828 0.57,4.915 1.71,6.264 0.603,0.696 1.425,1.218 2.467,1.565 1.044,0.347 2.274,0.522 3.696,0.522 0.408,0 0.804,0 1.191,0 0.388,0 0.787,-0.011 1.195,-0.032 h 0.516 0.582 1.161 c 2.106,-0.065 3.586,-0.637 4.435,-1.712 0.849,-1.078 1.275,-2.605 1.275,-4.585 v -1.923 h -4.516 c 0,1.826 -0.12,2.968 -0.357,3.425 -0.108,0.217 -0.558,0.347 -1.353,0.392 -0.666,0.042 -1.317,0.069 -1.953,0.08 -0.634,0.01 -1.297,0.016 -1.984,0.016 -1.656,0 -2.634,-0.174 -2.934,-0.521 -0.303,-0.37 -0.474,-1.577 -0.516,-3.621 0,-0.217 -0.006,-0.423 -0.018,-0.619 -0.009,-0.196 -0.015,-0.414 -0.015,-0.652 v -1.241 l 0.033,-2.772 c 0,-0.566 0.021,-1.099 0.063,-1.599 0.042,-0.5 0.117,-0.957 0.225,-1.369 v 0.065 c 0.108,-0.24 0.279,-0.452 0.516,-0.637 0.237,-0.185 0.582,-0.31 1.032,-0.375 0.474,-0.065 0.915,-0.097 1.323,-0.097 0.258,-0.023 0.522,-0.033 0.792,-0.033 0.267,0 0.532,0 0.789,0 h 1.129 c 0.753,0 1.362,0.027 1.824,0.082 0.462,0.053 0.78,0.168 0.951,0.342 0.3,0.262 0.453,1.131 0.453,2.61 v 0.521 h -6.097 v 4.305 0" /><path
   id="path598"
   style="fill:#254aa5;fill-opacity:1;fill-rule:nonzero;stroke:none;stroke-width:0.1"
   d="m 159.128,298.612 h 4.978 l -1.977,-6.292 5.417,0.889 -7.759,-16.951 2.342,12.287 -5.198,-0.222 2.197,10.289 v 0" /><path
   transform="translate(171,271.5)"
   id="qrCode"
   d="M 0,0 H 1 V 1 H 0 Z M 1,0 H 2 V 1 H 1 Z M 2,0 H 3 V 1 H 2 Z M 3,0 H 4 V 1 H 3 Z M 4,0 H 5 V 1 H 4 Z M 5,0 H 6 V 1 H 5 Z M 6,0 H 7 V 1 H 6 Z m 5,0 h 1 v 1 h -1 z m 1,0 h 1 v 1 h -1 z m 1,0 h 1 v 1 h -1 z m 2,0 h 1 v 1 h -1 z m 4,0 h 1 v 1 h -1 z m 3,0 h 1 v 1 h -1 z m 1,0 h 1 v 1 h -1 z m 1,0 h 1 v 1 h -1 z m 2,0 h 1 v 1 h -1 z m 1,0 h 1 v 1 h -1 z m 1,0 h 1 v 1 h -1 z m 1,0 h 1 v 1 h -1 z m 1,0 h 1 v 1 h -1 z m 1,0 h 1 v 1 h -1 z m 1,0 h 1 V 1 H 32 Z M 0,1 H 1 V 2 H 0 Z M 6,1 H 7 V 2 H 6 Z M 8,1 H 9 V 2 H 8 Z m 2,0 h 1 v 1 h -1 z m 1,0 h 1 v 1 h -1 z m 3,0 h 1 v 1 h -1 z m 1,0 h 1 v 1 h -1 z m 1,0 h 1 v 1 h -1 z m 2,0 h 1 v 1 h -1 z m 1,0 h 1 v 1 h -1 z m 1,0 h 1 v 1 h -1 z m 3,0 h 1 v 1 h -1 z m 3,0 h 1 v 1 h -1 z m 6,0 h 1 V 2 H 32 Z M 0,2 H 1 V 3 H 0 Z M 2,2 H 3 V 3 H 2 Z M 3,2 H 4 V 3 H 3 Z M 4,2 H 5 V 3 H 4 Z M 6,2 H 7 V 3 H 6 Z m 6,0 h 1 v 1 h -1 z m 1,0 h 1 v 1 h -1 z m 1,0 h 1 v 1 h -1 z m 1,0 h 1 v 1 h -1 z m 1,0 h 1 v 1 h -1 z m 3,0 h 1 v 1 h -1 z m 3,0 h 1 v 1 h -1 z m 4,0 h 1 v 1 h -1 z m 2,0 h 1 v 1 h -1 z m 1,0 h 1 v 1 h -1 z m 1,0 h 1 v 1 h -1 z m 2,0 h 1 V 3 H 32 Z M 0,3 H 1 V 4 H 0 Z M 2,3 H 3 V 4 H 2 Z M 3,3 H 4 V 4 H 3 Z M 4,3 H 5 V 4 H 4 Z M 6,3 H 7 V 4 H 6 Z m 3,0 h 1 V 4 H 9 Z m 2,0 h 1 v 1 h -1 z m 2,0 h 1 v 1 h -1 z m 1,0 h 1 v 1 h -1 z m 1,0 h 1 v 1 h -1 z m 1,0 h 1 v 1 h -1 z m 4,0 h 1 v 1 h -1 z m 2,0 h 1 v 1 h -1 z m 2,0 h 1 v 1 h -1 z m 2,0 h 1 v 1 h -1 z m 2,0 h 1 v 1 h -1 z m 1,0 h 1 v 1 h -1 z m 1,0 h 1 v 1 h -1 z m 2,0 h 1 V 4 H 32 Z M 0,4 H 1 V 5 H 0 Z M 2,4 H 3 V 5 H 2 Z M 3,4 H 4 V 5 H 3 Z M 4,4 H 5 V 5 H 4 Z M 6,4 H 7 V 5 H 6 Z M 8,4 H 9 V 5 H 8 Z m 1,0 h 1 V 5 H 9 Z m 3,0 h 1 v 1 h -1 z m 2,0 h 1 v 1 h -1 z m 2,0 h 1 v 1 h -1 z m 3,0 h 1 v 1 h -1 z m 1,0 h 1 v 1 h -1 z m 1,0 h 1 v 1 h -1 z m 1,0 h 1 v 1 h -1 z m 1,0 h 1 v 1 h -1 z m 3,0 h 1 v 1 h -1 z m 2,0 h 1 v 1 h -1 z m 1,0 h 1 v 1 h -1 z m 1,0 h 1 v 1 h -1 z m 2,0 h 1 V 5 H 32 Z M 0,5 H 1 V 6 H 0 Z M 6,5 H 7 V 6 H 6 Z m 5,0 h 1 v 1 h -1 z m 4,0 h 1 v 1 h -1 z m 1,0 h 1 v 1 h -1 z m 1,0 h 1 v 1 h -1 z m 2,0 h 1 v 1 h -1 z m 1,0 h 1 v 1 h -1 z m 2,0 h 1 v 1 h -1 z m 1,0 h 1 v 1 h -1 z m 1,0 h 1 v 1 h -1 z m 2,0 h 1 v 1 h -1 z m 6,0 h 1 V 6 H 32 Z M 0,6 H 1 V 7 H 0 Z M 1,6 H 2 V 7 H 1 Z M 2,6 H 3 V 7 H 2 Z M 3,6 H 4 V 7 H 3 Z M 4,6 H 5 V 7 H 4 Z M 5,6 H 6 V 7 H 5 Z M 6,6 H 7 V 7 H 6 Z M 8,6 H 9 V 7 H 8 Z m 2,0 h 1 v 1 h -1 z m 2,0 h 1 v 1 h -1 z m 2,0 h 1 v 1 h -1 z m 2,0 h 1 v 1 h -1 z m 2,0 h 1 v 1 h -1 z m 2,0 h 1 v 1 h -1 z m 2,0 h 1 v 1 h -1 z m 2,0 h 1 v 1 h -1 z m 2,0 h 1 v 1 h -1 z m 1,0 h 1 v 1 h -1 z m 1,0 h 1 v 1 h -1 z m 1,0 h 1 v 1 h -1 z m 1,0 h 1 v 1 h -1 z m 1,0 h 1 v 1 h -1 z m 1,0 h 1 V 7 H 32 Z M 10,7 h 1 v 1 h -1 z m 1,0 h 1 v 1 h -1 z m 2,0 h 1 v 1 h -1 z m 2,0 h 1 v 1 h -1 z m 2,0 h 1 v 1 h -1 z m 3,0 h 1 v 1 h -1 z m 1,0 h 1 v 1 h -1 z m 2,0 h 1 V 8 H 23 Z M 0,8 H 1 V 9 H 0 Z M 2,8 H 3 V 9 H 2 Z M 4,8 H 5 V 9 H 4 Z M 6,8 H 7 V 9 H 6 Z m 4,0 h 1 v 1 h -1 z m 1,0 h 1 v 1 h -1 z m 1,0 h 1 v 1 h -1 z m 1,0 h 1 v 1 h -1 z m 3,0 h 1 v 1 h -1 z m 1,0 h 1 v 1 h -1 z m 3,0 h 1 v 1 h -1 z m 1,0 h 1 v 1 h -1 z m 2,0 h 1 v 1 h -1 z m 1,0 h 1 v 1 h -1 z m 4,0 h 1 v 1 h -1 z m 3,0 h 1 V 9 H 31 Z M 2,9 h 1 v 1 H 2 Z m 1,0 h 1 v 1 H 3 Z m 2,0 h 1 v 1 H 5 Z m 3,0 h 1 v 1 H 8 Z m 1,0 h 1 v 1 H 9 Z m 3,0 h 1 v 1 h -1 z m 1,0 h 1 v 1 h -1 z m 3,0 h 1 v 1 h -1 z m 1,0 h 1 v 1 h -1 z m 3,0 h 1 v 1 h -1 z m 1,0 h 1 v 1 h -1 z m 3,0 h 1 v 1 h -1 z m 1,0 h 1 v 1 h -1 z m 1,0 h 1 v 1 h -1 z m 1,0 h 1 v 1 h -1 z m 4,0 h 1 v 1 h -1 z m 1,0 h 1 v 1 H 32 Z M 0,10 h 1 v 1 H 0 Z m 2,0 h 1 v 1 H 2 Z m 1,0 h 1 v 1 H 3 Z m 1,0 h 1 v 1 H 4 Z m 2,0 h 1 v 1 H 6 Z m 1,0 h 1 v 1 H 7 Z m 2,0 h 1 v 1 H 9 Z m 1,0 h 1 v 1 h -1 z m 2,0 h 1 v 1 h -1 z m 2,0 h 1 v 1 h -1 z m 3,0 h 1 v 1 h -1 z m 1,0 h 1 v 1 h -1 z m 2,0 h 1 v 1 h -1 z m 5,0 h 1 v 1 h -1 z m 1,0 h 1 v 1 h -1 z m 1,0 h 1 v 1 h -1 z m 3,0 h 1 v 1 h -1 z m 2,0 h 1 v 1 H 32 Z M 3,11 h 1 v 1 H 3 Z m 2,0 h 1 v 1 H 5 Z m 2,0 h 1 v 1 H 7 Z m 3,0 h 1 v 1 h -1 z m 2,0 h 1 v 1 h -1 z m 1,0 h 1 v 1 h -1 z m 1,0 h 1 v 1 h -1 z m 3,0 h 1 v 1 h -1 z m 4,0 h 1 v 1 h -1 z m 1,0 h 1 v 1 h -1 z m 1,0 h 1 v 1 h -1 z m 1,0 h 1 v 1 h -1 z m 4,0 h 1 v 1 h -1 z m 3,0 h 1 v 1 h -1 z m 1,0 h 1 v 1 H 32 Z M 1,12 h 1 v 1 H 1 Z m 2,0 h 1 v 1 H 3 Z m 1,0 h 1 v 1 H 4 Z m 2,0 h 1 v 1 H 6 Z m 1,0 h 1 v 1 H 7 Z m 1,0 h 1 v 1 H 8 Z m 4,0 h 1 v 1 h -1 z m 2,0 h 1 v 1 h -1 z m 2,0 h 1 v 1 h -1 z m 2,0 h 1 v 1 h -1 z m 3,0 h 1 v 1 h -1 z m 4,0 h 1 v 1 h -1 z m 1,0 h 1 v 1 h -1 z m 1,0 h 1 v 1 h -1 z m 2,0 h 1 v 1 h -1 z m 2,0 h 1 v 1 H 31 Z M 0,13 h 1 v 1 H 0 Z m 1,0 h 1 v 1 H 1 Z m 2,0 h 1 v 1 H 3 Z m 5,0 h 1 v 1 H 8 Z m 6,0 h 1 v 1 h -1 z m 1,0 h 1 v 1 h -1 z m 1,0 h 1 v 1 h -1 z m 1,0 h 1 v 1 h -1 z m 4,0 h 1 v 1 h -1 z m 1,0 h 1 v 1 h -1 z m 2,0 h 1 v 1 h -1 z m 1,0 h 1 v 1 h -1 z m 1,0 h 1 v 1 h -1 z m 4,0 h 1 v 1 h -1 z m 2,0 h 1 v 1 H 32 Z M 1,14 h 1 v 1 H 1 Z m 1,0 h 1 v 1 H 2 Z m 1,0 h 1 v 1 H 3 Z m 1,0 h 1 v 1 H 4 Z m 2,0 h 1 v 1 H 6 Z m 6,0 h 1 v 1 h -1 z m 1,0 h 1 v 1 h -1 z m 1,0 h 1 v 1 h -1 z m 1,0 h 1 v 1 h -1 z m 1,0 h 1 v 1 h -1 z m 2,0 h 1 v 1 h -1 z m 6,0 h 1 v 1 h -1 z m 1,0 h 1 v 1 h -1 z m 3,0 h 1 v 1 h -1 z m 1,0 h 1 v 1 h -1 z m 2,0 h 1 v 1 h -1 z m 1,0 h 1 v 1 H 32 Z M 7,15 h 1 v 1 H 7 Z m 2,0 h 1 v 1 H 9 Z m 1,0 h 1 v 1 h -1 z m 4,0 h 1 v 1 h -1 z m 2,0 h 1 v 1 h -1 z m 1,0 h 1 v 1 h -1 z m 1,0 h 1 v 1 h -1 z m 1,0 h 1 v 1 h -1 z m 2,0 h 1 v 1 h -1 z m 1,0 h 1 v 1 h -1 z m 1,0 h 1 v 1 h -1 z m 1,0 h 1 v 1 h -1 z m 2,0 h 1 v 1 h -1 z m 5,0 h 1 v 1 H 31 Z M 0,16 h 1 v 1 H 0 Z m 1,0 h 1 v 1 H 1 Z m 1,0 h 1 v 1 H 2 Z m 1,0 h 1 v 1 H 3 Z m 2,0 h 1 v 1 H 5 Z m 1,0 h 1 v 1 H 6 Z m 1,0 h 1 v 1 H 7 Z m 1,0 h 1 v 1 H 8 Z m 2,0 h 1 v 1 h -1 z m 2,0 h 1 v 1 h -1 z m 1,0 h 1 v 1 h -1 z m 2,0 h 1 v 1 h -1 z m 2,0 h 1 v 1 h -1 z m 1,0 h 1 v 1 h -1 z m 3,0 h 1 v 1 h -1 z m 3,0 h 1 v 1 h -1 z m 1,0 h 1 v 1 h -1 z m 1,0 h 1 v 1 h -1 z m 3,0 h 1 v 1 H 29 Z M 0,17 h 1 v 1 H 0 Z m 2,0 h 1 v 1 H 2 Z m 2,0 h 1 v 1 H 4 Z m 1,0 h 1 v 1 H 5 Z m 3,0 h 1 v 1 H 8 Z m 3,0 h 1 v 1 h -1 z m 3,0 h 1 v 1 h -1 z m 2,0 h 1 v 1 h -1 z m 4,0 h 1 v 1 h -1 z m 1,0 h 1 v 1 h -1 z m 3,0 h 1 v 1 h -1 z m 1,0 h 1 v 1 h -1 z m 1,0 h 1 v 1 h -1 z m 1,0 h 1 v 1 h -1 z m 4,0 h 1 v 1 h -1 z m 1,0 h 1 v 1 H 32 Z M 2,18 h 1 v 1 H 2 Z m 4,0 h 1 v 1 H 6 Z m 3,0 h 1 v 1 H 9 Z m 4,0 h 1 v 1 h -1 z m 1,0 h 1 v 1 h -1 z m 3,0 h 1 v 1 h -1 z m 4,0 h 1 v 1 h -1 z m 1,0 h 1 v 1 h -1 z m 2,0 h 1 v 1 h -1 z m 2,0 h 1 v 1 h -1 z m 4,0 h 1 v 1 h -1 z m 1,0 h 1 v 1 h -1 z m 1,0 h 1 v 1 H 32 Z M 0,19 h 1 v 1 H 0 Z m 3,0 h 1 v 1 H 3 Z m 4,0 h 1 v 1 H 7 Z m 2,0 h 1 v 1 H 9 Z m 3,0 h 1 v 1 h -1 z m 1,0 h 1 v 1 h -1 z m 1,0 h 1 v 1 h -1 z m 2,0 h 1 v 1 h -1 z m 3,0 h 1 v 1 h -1 z m 1,0 h 1 v 1 h -1 z m 1,0 h 1 v 1 h -1 z m 1,0 h 1 v 1 h -1 z m 4,0 h 1 v 1 h -1 z m 1,0 h 1 v 1 h -1 z m 1,0 h 1 v 1 H 28 Z M 1,20 h 1 v 1 H 1 Z m 1,0 h 1 v 1 H 2 Z m 2,0 h 1 v 1 H 4 Z m 2,0 h 1 v 1 H 6 Z m 1,0 h 1 v 1 H 7 Z m 7,0 h 1 v 1 h -1 z m 1,0 h 1 v 1 h -1 z m 6,0 h 1 v 1 h -1 z m 1,0 h 1 v 1 h -1 z m 3,0 h 1 v 1 h -1 z m 1,0 h 1 v 1 h -1 z m 3,0 h 1 v 1 h -1 z m 2,0 h 1 v 1 h -1 z m 1,0 h 1 v 1 H 32 Z M 2,21 h 1 v 1 H 2 Z m 1,0 h 1 v 1 H 3 Z m 8,0 h 1 v 1 h -1 z m 4,0 h 1 v 1 h -1 z m 6,0 h 1 v 1 h -1 z m 3,0 h 1 v 1 h -1 z m 2,0 h 1 v 1 h -1 z m 3,0 h 1 v 1 h -1 z m 2,0 h 1 v 1 h -1 z m 1,0 h 1 v 1 H 32 Z M 0,22 h 1 v 1 H 0 Z m 2,0 h 1 v 1 H 2 Z m 2,0 h 1 v 1 H 4 Z m 2,0 h 1 v 1 H 6 Z m 1,0 h 1 v 1 H 7 Z m 2,0 h 1 v 1 H 9 Z m 1,0 h 1 v 1 h -1 z m 1,0 h 1 v 1 h -1 z m 6,0 h 1 v 1 h -1 z m 3,0 h 1 v 1 h -1 z m 1,0 h 1 v 1 h -1 z m 1,0 h 1 v 1 h -1 z m 3,0 h 1 v 1 h -1 z m 1,0 h 1 v 1 h -1 z m 1,0 h 1 v 1 h -1 z m 3,0 h 1 v 1 h -1 z m 1,0 h 1 v 1 h -1 z m 1,0 h 1 v 1 H 32 Z M 1,23 h 1 v 1 H 1 Z m 1,0 h 1 v 1 H 2 Z m 3,0 h 1 v 1 H 5 Z m 2,0 h 1 v 1 H 7 Z m 2,0 h 1 v 1 H 9 Z m 1,0 h 1 v 1 h -1 z m 1,0 h 1 v 1 h -1 z m 2,0 h 1 v 1 h -1 z m 2,0 h 1 v 1 h -1 z m 2,0 h 1 v 1 h -1 z m 2,0 h 1 v 1 h -1 z m 2,0 h 1 v 1 h -1 z m 1,0 h 1 v 1 h -1 z m 2,0 h 1 v 1 h -1 z m 4,0 h 1 v 1 h -1 z m 3,0 h 1 v 1 h -1 z m 1,0 h 1 v 1 H 32 Z M 0,24 h 1 v 1 H 0 Z m 3,0 h 1 v 1 H 3 Z m 1,0 h 1 v 1 H 4 Z m 2,0 h 1 v 1 H 6 Z m 2,0 h 1 v 1 H 8 Z m 2,0 h 1 v 1 h -1 z m 6,0 h 1 v 1 h -1 z m 1,0 h 1 v 1 h -1 z m 2,0 h 1 v 1 h -1 z m 2,0 h 1 v 1 h -1 z m 1,0 h 1 v 1 h -1 z m 1,0 h 1 v 1 h -1 z m 1,0 h 1 v 1 h -1 z m 1,0 h 1 v 1 h -1 z m 1,0 h 1 v 1 h -1 z m 1,0 h 1 v 1 h -1 z m 1,0 h 1 v 1 h -1 z m 1,0 h 1 v 1 h -1 z m 2,0 h 1 v 1 h -1 z m 1,0 h 1 v 1 H 32 Z M 8,25 h 1 v 1 H 8 Z m 2,0 h 1 v 1 h -1 z m 2,0 h 1 v 1 h -1 z m 2,0 h 1 v 1 h -1 z m 3,0 h 1 v 1 h -1 z m 3,0 h 1 v 1 h -1 z m 4,0 h 1 v 1 h -1 z m 4,0 h 1 v 1 h -1 z m 1,0 h 1 v 1 h -1 z m 2,0 h 1 v 1 h -1 z m 1,0 h 1 v 1 H 32 Z M 0,26 h 1 v 1 H 0 Z m 1,0 h 1 v 1 H 1 Z m 1,0 h 1 v 1 H 2 Z m 1,0 h 1 v 1 H 3 Z m 1,0 h 1 v 1 H 4 Z m 1,0 h 1 v 1 H 5 Z m 1,0 h 1 v 1 H 6 Z m 6,0 h 1 v 1 h -1 z m 2,0 h 1 v 1 h -1 z m 4,0 h 1 v 1 h -1 z m 3,0 h 1 v 1 h -1 z m 2,0 h 1 v 1 h -1 z m 1,0 h 1 v 1 h -1 z m 2,0 h 1 v 1 h -1 z m 2,0 h 1 v 1 h -1 z m 2,0 h 1 v 1 h -1 z m 1,0 h 1 v 1 h -1 z m 1,0 h 1 v 1 H 32 Z M 0,27 h 1 v 1 H 0 Z m 6,0 h 1 v 1 H 6 Z m 3,0 h 1 v 1 H 9 Z m 5,0 h 1 v 1 h -1 z m 1,0 h 1 v 1 h -1 z m 1,0 h 1 v 1 h -1 z m 1,0 h 1 v 1 h -1 z m 1,0 h 1 v 1 h -1 z m 1,0 h 1 v 1 h -1 z m 1,0 h 1 v 1 h -1 z m 1,0 h 1 v 1 h -1 z m 1,0 h 1 v 1 h -1 z m 2,0 h 1 v 1 h -1 z m 4,0 h 1 v 1 H 28 Z M 0,28 h 1 v 1 H 0 Z m 2,0 h 1 v 1 H 2 Z m 1,0 h 1 v 1 H 3 Z m 1,0 h 1 v 1 H 4 Z m 2,0 h 1 v 1 H 6 Z m 2,0 h 1 v 1 H 8 Z m 1,0 h 1 v 1 H 9 Z m 1,0 h 1 v 1 h -1 z m 3,0 h 1 v 1 h -1 z m 3,0 h 1 v 1 h -1 z m 2,0 h 1 v 1 h -1 z m 3,0 h 1 v 1 h -1 z m 1,0 h 1 v 1 h -1 z m 2,0 h 1 v 1 h -1 z m 1,0 h 1 v 1 h -1 z m 1,0 h 1 v 1 h -1 z m 1,0 h 1 v 1 h -1 z m 1,0 h 1 v 1 h -1 z m 1,0 h 1 v 1 h -1 z m 2,0 h 1 v 1 h -1 z m 1,0 h 1 v 1 H 32 Z M 0,29 h 1 v 1 H 0 Z m 2,0 h 1 v 1 H 2 Z m 1,0 h 1 v 1 H 3 Z m 1,0 h 1 v 1 H 4 Z m 2,0 h 1 v 1 H 6 Z m 4,0 h 1 v 1 h -1 z m 3,0 h 1 v 1 h -1 z m 1,0 h 1 v 1 h -1 z m 1,0 h 1 v 1 h -1 z m 1,0 h 1 v 1 h -1 z m 1,0 h 1 v 1 h -1 z m 1,0 h 1 v 1 h -1 z m 4,0 h 1 v 1 h -1 z m 1,0 h 1 v 1 h -1 z m 5,0 h 1 v 1 h -1 z m 1,0 h 1 v 1 h -1 z m 3,0 h 1 v 1 H 32 Z M 0,30 h 1 v 1 H 0 Z m 2,0 h 1 v 1 H 2 Z m 1,0 h 1 v 1 H 3 Z m 1,0 h 1 v 1 H 4 Z m 2,0 h 1 v 1 H 6 Z m 2,0 h 1 v 1 H 8 Z m 1,0 h 1 v 1 H 9 Z m 2,0 h 1 v 1 h -1 z m 4,0 h 1 v 1 h -1 z m 1,0 h 1 v 1 h -1 z m 4,0 h 1 v 1 h -1 z m 1,0 h 1 v 1 h -1 z m 3,0 h 1 v 1 h -1 z m 1,0 h 1 v 1 h -1 z m 3,0 h 1 v 1 h -1 z m 4,0 h 1 v 1 H 32 Z M 0,31 h 1 v 1 H 0 Z m 6,0 h 1 v 1 H 6 Z m 4,0 h 1 v 1 h -1 z m 1,0 h 1 v 1 h -1 z m 2,0 h 1 v 1 h -1 z m 1,0 h 1 v 1 h -1 z m 2,0 h 1 v 1 h -1 z m 1,0 h 1 v 1 h -1 z m 1,0 h 1 v 1 h -1 z m 1,0 h 1 v 1 h -1 z m 1,0 h 1 v 1 h -1 z m 1,0 h 1 v 1 h -1 z m 2,0 h 1 v 1 h -1 z m 1,0 h 1 v 1 h -1 z m 4,0 h 1 v 1 h -1 z m 3,0 h 1 v 1 H 31 Z M 0,32 h 1 v 1 H 0 Z m 1,0 h 1 v 1 H 1 Z m 1,0 h 1 v 1 H 2 Z m 1,0 h 1 v 1 H 3 Z m 1,0 h 1 v 1 H 4 Z m 1,0 h 1 v 1 H 5 Z m 1,0 h 1 v 1 H 6 Z m 2,0 h 1 v 1 H 8 Z m 2,0 h 1 v 1 h -1 z m 3,0 h 1 v 1 h -1 z m 2,0 h 1 v 1 h -1 z m 2,0 h 1 v 1 h -1 z m 3,0 h 1 v 1 h -1 z m 1,0 h 1 v 1 h -1 z m 3,0 h 1 v 1 h -1 z m 2,0 h 1 v 1 h -1 z m 2,0 h 1 v 1 h -1 z m 3,0 h 1 v 1 h -1 z m 1,0 h 1 v 1 h -1 z"
   style="stroke-width:1.24914" /><text
   y="-237.52283"
   x="7.3146505"
   transform="scale(1,-1)"
   style="font-style:normal;font-variant:normal;font-weight:normal;font-stretch:normal;font-size:10px;font-family:Verdana;-inkscape-font-specification:'Verdana, Normal';font-variant-ligatures:normal;font-variant-caps:normal;font-variant-numeric:normal;font-variant-east-asian:normal;writing-mode:lr-tb;fill:#231f20;fill-opacity:1;fill-rule:nonzero;stroke:none"
   id="dimensions">[DIMENSIONS]</text><g
   id="fuelEfficiencyClassD"
   style="display:none"><path
     id="path140-3"
     style="fill:#040606;fill-opacity:1;fill-rule:nonzero;stroke:none;stroke-width:0.0999997"
     d="m 80.244898,120.43321 -8.739799,-13.446 8.739799,-13.486987 H 98.053099 V 120.43321 H 80.244898 v 0" /><text
     transform="scale(0.99405229,-1.0059833)"
     style="font-style:normal;font-variant:normal;font-weight:bold;font-stretch:normal;font-size:19.9063px;font-family:Calibri;-inkscape-font-specification:'Calibri, Bold';font-variant-ligatures:normal;font-variant-caps:normal;font-variant-numeric:normal;font-variant-east-asian:normal;writing-mode:lr-tb;fill:#ffffff;fill-opacity:1;fill-rule:nonzero;stroke:none;stroke-width:0.994052"
     fill="#ffffff"
     id="text146-64"
     x="80.23381"
     y="-100.22898"><tspan
       sodipodi:role="line"
       id="tspan1597"
       x="80.23381"
       y="-100.22898"
       style="font-style:normal;font-variant:normal;font-weight:bold;font-stretch:normal;font-size:19.9063px;font-family:Calibri;-inkscape-font-specification:'Calibri, Bold';font-variant-ligatures:normal;font-variant-caps:normal;font-variant-numeric:normal;font-variant-east-asian:normal;stroke-width:0.994052">D</tspan></text></g><g
   id="fuelEfficiencyClassE"
   style="display:none"><path
     d="m 80.224176,97.7769 -8.739799,-13.446 8.739799,-13.487 h 17.808201 v 26.933 H 80.224176 v 0"
     style="fill:#040606;fill-opacity:1;fill-rule:nonzero;stroke:none;stroke-width:0.0999997"
     id="path140-7" /><text
     id="text146-60"
     fill="#ffffff"
     style="font-style:normal;font-variant:normal;font-weight:bold;font-stretch:normal;font-size:19.9063px;font-family:Calibri;-inkscape-font-specification:'Calibri, Bold';font-variant-ligatures:normal;font-variant-caps:normal;font-variant-numeric:normal;font-variant-east-asian:normal;writing-mode:lr-tb;fill:#ffffff;fill-opacity:1;fill-rule:nonzero;stroke:none;stroke-width:0.994052"
     transform="scale(0.99405229,-1.0059833)"
     x="81.721931"
     y="-77.277489"><tspan
       y="-77.277489"
       x="81.721931"
       id="tspan1609"
       sodipodi:role="line"
       style="font-style:normal;font-variant:normal;font-weight:bold;font-stretch:normal;font-size:19.9063px;font-family:Calibri;-inkscape-font-specification:'Calibri, Bold';font-variant-ligatures:normal;font-variant-caps:normal;font-variant-numeric:normal;font-variant-east-asian:normal;stroke-width:0.994052">E</tspan></text></g><g
   id="wetGripClassA"
   style="display:none"><path
     d="m 186.28769,188.485 -8.7398,-13.446 8.7398,-13.487 h 17.8082 v 26.933 h -17.8082 v 0"
     style="fill:#040606;fill-opacity:1;fill-rule:nonzero;stroke:none;stroke-width:0.0999997"
     id="path140-4" /><text
     id="text146-1"
     fill="#ffffff"
     style="font-style:normal;font-variant:normal;font-weight:bold;font-stretch:normal;font-size:19.9063px;font-family:Calibri;-inkscape-font-specification:'Calibri, Bold';font-variant-ligatures:normal;font-variant-caps:normal;font-variant-numeric:normal;font-variant-east-asian:normal;writing-mode:lr-tb;fill:#ffffff;fill-opacity:1;fill-rule:nonzero;stroke:none;stroke-width:0.994052"
     transform="scale(0.9940523,-1.0059833)"
     x="188.42006"
     y="-167.61836"><tspan
       y="-167.61836"
       x="188.42006"
       id="tspan1633"
       sodipodi:role="line"
       style="font-style:normal;font-variant:normal;font-weight:bold;font-stretch:normal;font-size:19.9063px;font-family:Calibri;-inkscape-font-specification:'Calibri, Bold';font-variant-ligatures:normal;font-variant-caps:normal;font-variant-numeric:normal;font-variant-east-asian:normal;stroke-width:0.994052">A</tspan></text></g><g
   id="wetGripClassB"
   style="display:none"><path
     d="m 186.28979,165.75261 -8.7398,-13.446 8.7398,-13.487 h 17.8082 v 26.933 h -17.8082 v 0"
     style="fill:#040606;fill-opacity:1;fill-rule:nonzero;stroke:none;stroke-width:0.0999997"
     id="path140-4-5" /><text
     y="-145.12439"
     x="188.42216"
     transform="scale(0.99405229,-1.0059833)"
     style="font-style:normal;font-variant:normal;font-weight:bold;font-stretch:normal;font-size:19.9063px;font-family:Calibri;-inkscape-font-specification:'Calibri, Bold';font-variant-ligatures:normal;font-variant-caps:normal;font-variant-numeric:normal;font-variant-east-asian:normal;writing-mode:lr-tb;fill:#ffffff;fill-opacity:1;fill-rule:nonzero;stroke:none;stroke-width:0.99405"
     fill="#ffffff"
     id="text146-1-8"><tspan
       y="-145.12439"
       x="188.42216"
       id="tspan1658"
       sodipodi:role="line">B</tspan></text></g><g
   id="wetGripClassC"
   style="display:none"><path
     d="m 186.27192,143.11568 -8.7398,-13.446 8.7398,-13.487 h 17.8082 v 26.933 h -17.8082 v 0"
     style="fill:#040606;fill-opacity:1;fill-rule:nonzero;stroke:none;stroke-width:0.0999997"
     id="path140-4-4" /><text
     y="-122.72531"
     x="188.40419"
     transform="scale(0.99405229,-1.0059833)"
     style="font-style:normal;font-variant:normal;font-weight:bold;font-stretch:normal;font-size:19.9063px;font-family:Calibri;-inkscape-font-specification:'Calibri, Bold';font-variant-ligatures:normal;font-variant-caps:normal;font-variant-numeric:normal;font-variant-east-asian:normal;writing-mode:lr-tb;fill:#ffffff;fill-opacity:1;fill-rule:nonzero;stroke:none;stroke-width:0.99405"
     fill="#ffffff"
     id="text146-1-7"><tspan
       y="-122.72531"
       x="188.40419"
       id="tspan1672"
       sodipodi:role="line">C</tspan></text></g><g
   id="wetGripClassE"
   style="display:none"><path
     d="m 186.28648,97.778764 -8.7398,-13.446 8.7398,-13.487 h 17.8082 v 26.933 h -17.8082 v 0"
     style="fill:#040606;fill-opacity:1;fill-rule:nonzero;stroke:none;stroke-width:0.0999997"
     id="path140-4-9" /><text
     y="-77.658035"
     x="188.41884"
     transform="scale(0.99405229,-1.0059833)"
     style="font-style:normal;font-variant:normal;font-weight:bold;font-stretch:normal;font-size:19.9063px;font-family:Calibri;-inkscape-font-specification:'Calibri, Bold';font-variant-ligatures:normal;font-variant-caps:normal;font-variant-numeric:normal;font-variant-east-asian:normal;writing-mode:lr-tb;fill:#ffffff;fill-opacity:1;fill-rule:nonzero;stroke:none;stroke-width:0.99405"
     fill="#ffffff"
     id="text146-1-4"><tspan
       y="-77.658035"
       x="188.41884"
       id="tspan1684"
       sodipodi:role="line">E</tspan></text></g><g
   id="noiseClassC"
   transform="translate(-2.4757029e-4,9.1959328e-4)"
   style="display:none"><text
     y="-8.8789101"
     x="37.272686"
     transform="scale(1,-1)"
     style="font-style:normal;font-variant:normal;font-weight:normal;font-stretch:normal;font-size:8px;font-family:Verdana;-inkscape-font-specification:'Verdana, Normal';font-variant-ligatures:normal;font-variant-caps:normal;font-variant-numeric:normal;font-variant-east-asian:normal;text-align:center;writing-mode:lr-tb;text-anchor:middle;fill:#231f20;fill-opacity:1;fill-rule:nonzero;stroke:none"
     id="text543-2"><tspan
       id="tspan1147-3"
       style="font-style:normal;font-variant:normal;font-weight:normal;font-stretch:normal;font-size:8px;font-family:Verdana;-inkscape-font-specification:'Verdana, Normal';font-variant-ligatures:normal;font-variant-caps:normal;font-variant-numeric:normal;font-variant-east-asian:normal;text-align:start;text-anchor:start">A</tspan></text><text
     y="-8.8631687"
     x="44.082024"
     transform="scale(1,-1)"
     style="font-style:normal;font-variant:normal;font-weight:normal;font-stretch:normal;font-size:8px;font-family:Verdana;-inkscape-font-specification:'Verdana, Normal';font-variant-ligatures:normal;font-variant-caps:normal;font-variant-numeric:normal;font-variant-east-asian:normal;text-align:center;writing-mode:lr-tb;text-anchor:middle;fill:#231f20;fill-opacity:1;fill-rule:nonzero;stroke:none"
     id="text542-1"><tspan
       id="tspan1149-1"
       style="font-style:normal;font-variant:normal;font-weight:normal;font-stretch:normal;font-size:8px;font-family:Verdana;-inkscape-font-specification:'Verdana, Normal';font-variant-ligatures:normal;font-variant-caps:normal;font-variant-numeric:normal;font-variant-east-asian:normal;text-align:start;text-anchor:start">B</tspan></text><text
     y="-8.9755077"
     x="50.987888"
     transform="scale(1,-1)"
     style="font-style:normal;font-variant:normal;font-weight:bold;font-stretch:normal;font-size:12px;font-family:Verdana;-inkscape-font-specification:'Verdana, Bold';font-variant-ligatures:normal;font-variant-caps:normal;font-variant-numeric:normal;font-variant-east-asian:normal;text-align:center;writing-mode:lr-tb;text-anchor:middle;opacity:0.86;fill:#231f20;fill-opacity:1;fill-rule:nonzero;stroke:none"
     id="text541-9"><tspan
       id="tspan1151-8"
       style="font-style:normal;font-variant:normal;font-weight:bold;font-stretch:normal;font-size:12px;font-family:Verdana;-inkscape-font-specification:'Verdana, Bold';font-variant-ligatures:normal;font-variant-caps:normal;font-variant-numeric:normal;font-variant-east-asian:normal;text-align:start;text-anchor:start">C</tspan></text></g><g
   style="display:none"
   transform="translate(2.8575765,-0.0155165)"
   id="noiseClassA"><text
     id="text543-2-9"
     style="font-style:normal;font-variant:normal;font-weight:bold;font-stretch:normal;font-size:12px;font-family:Verdana;-inkscape-font-specification:'Verdana, Bold';font-variant-ligatures:normal;font-variant-caps:normal;font-variant-numeric:normal;font-variant-east-asian:normal;text-align:center;writing-mode:lr-tb;text-anchor:middle;display:inline;fill:#231f20;fill-opacity:1;fill-rule:nonzero;stroke:none"
     transform="scale(1,-1)"
     x="33.777344"
     y="-8.8789101"><tspan
       style="font-style:normal;font-variant:normal;font-weight:bold;font-stretch:normal;font-size:12px;font-family:Verdana;-inkscape-font-specification:'Verdana, Bold';font-variant-ligatures:normal;font-variant-caps:normal;font-variant-numeric:normal;font-variant-east-asian:normal;text-align:start;text-anchor:start"
       id="tspan1147-3-0">A</tspan></text><text
     id="text542-1-1"
     style="font-style:normal;font-variant:normal;font-weight:normal;font-stretch:normal;font-size:8px;font-family:sans-serif;-inkscape-font-specification:'sans-serif, Normal';font-variant-ligatures:normal;font-variant-caps:normal;font-variant-numeric:normal;font-variant-east-asian:normal;text-align:center;writing-mode:lr-tb;text-anchor:middle;fill:#231f20;fill-opacity:1;fill-rule:nonzero;stroke:none"
     transform="scale(1,-1)"
     x="44.319801"
     y="-8.8393908"><tspan
       style="font-style:normal;font-variant:normal;font-weight:normal;font-stretch:normal;font-size:8px;font-family:sans-serif;-inkscape-font-specification:'sans-serif, Normal';font-variant-ligatures:normal;font-variant-caps:normal;font-variant-numeric:normal;font-variant-east-asian:normal;text-align:start;text-anchor:start"
       id="tspan1149-1-9">B</tspan></text><text
     id="text541-9-2"
     style="font-style:normal;font-variant:normal;font-weight:normal;font-stretch:normal;font-size:8px;font-family:Verdana;-inkscape-font-specification:'Verdana, Normal';font-variant-ligatures:normal;font-variant-caps:normal;font-variant-numeric:normal;font-variant-east-asian:normal;text-align:center;writing-mode:lr-tb;text-anchor:middle;opacity:0.86;fill:#231f20;fill-opacity:1;fill-rule:nonzero;stroke:none"
     transform="scale(1,-1)"
     x="50.987888"
     y="-8.9755077"><tspan
       style="font-style:normal;font-variant:normal;font-weight:normal;font-stretch:normal;font-size:8px;font-family:Verdana;-inkscape-font-specification:'Verdana, Normal';font-variant-ligatures:normal;font-variant-caps:normal;font-variant-numeric:normal;font-variant-east-asian:normal;text-align:start;text-anchor:start"
       id="tspan1151-8-9">C</tspan></text></g></g></svg>
